<svg width="101" height="205" viewBox="0 0 101 205" fill="none" xmlns="http://www.w3.org/2000/svg">
<path d="M79.8377 86.6597C78.1152 86.6597 74.2005 85.8591 72.3214 82.6567C71.7856 81.7437 71.4408 80.962 71.2325 80.302M71.3819 77.4764C71.046 77.7569 70.7102 78.6472 71.2325 80.302M71.2325 80.302C70.977 80.3567 70.6095 80.3905 70.2074 80.3554M68.0935 79.1247C68.5831 79.9837 69.4559 80.2898 70.2074 80.3554M70.2074 80.3554C69.9726 82.6923 69.3619 87.4603 68.7981 87.8371M88.0586 80.3554C87.902 79.3957 86.5084 76.3461 82.1865 71.8251C77.8646 67.304 70.9904 62.2492 68.0935 60.287C65.9012 59.3451 60.8591 58.0265 58.2284 60.287C55.5977 62.5475 53.2175 65.7813 52.3563 67.1157C51.9648 68.2146 51.1349 71.1187 50.947 73.9443C50.7121 66.4093 50.1014 51.0095 49.5377 49.6908C49.5377 47.8855 49.5377 43.804 49.5377 41.9203C49.5377 39.5656 49.3028 30.3822 48.3633 28.7339C47.6116 27.4153 47.1105 20.4924 46.9539 17.1958C47.0322 13.0358 46.0144 4.33911 41.3167 2.8321C36.6191 1.32509 34.0353 2.20418 33.3307 2.8321C32.7043 3.30315 31.4516 5.32842 31.4516 9.66108M62.2214 81.9503C60.4989 81.8718 56.866 81.1968 56.1144 79.1247M36.6191 71.8251C36.4625 66.3309 36.0084 54.9186 35.4446 53.2232C35.7578 47.9644 36.1963 36.6932 35.4446 33.6791C35.4446 32.8158 35.4446 30.8537 35.4446 29.9116C36.071 25.2022 36.5251 15.1711 33.3307 12.7222C30.1363 10.2733 28.3981 10.132 27.9284 10.3675C26.4408 10.5245 23.1367 11.2152 21.8214 12.7222C20.506 14.2292 20.1772 27.3214 20.1772 33.6791M21.8214 80.3554C21.6648 73.823 21.1167 60.2873 20.1772 58.4036C19.2377 56.5198 19.7857 53.3802 20.1772 52.0459C20.4121 47.1795 20.3181 36.8815 18.0633 34.621C15.8084 32.3605 12.426 31.6384 11.0167 31.5599C9.52915 31.6382 6.50698 33.8198 6.31907 41.9203C6.13117 50.0207 5.61442 59.8949 5.37954 63.8194C5.37954 69.9414 5.37954 83.3158 5.37954 87.8371C5.37954 92.3584 3.34388 108.088 2.32605 115.388C1.93458 125.513 1.57442 146.517 3.26558 149.531" stroke="#8D0000" stroke-width="3" stroke-linecap="round" stroke-linejoin="round"/>
<path d="M54.4588 203.178C53.6691 197.028 52.5636 184.017 54.4588 181.178C56.354 178.339 58.0913 175.579 58.723 174.554C63.3821 170.059 73.3635 159.982 76.0167 155.629C78.67 151.276 82.65 147.034 84.3083 145.457C85.7297 144.037 88.8094 139.969 89.757 135.048C90.7046 130.128 94.7319 121.17 96.6271 117.306C98.3644 114.94 100.986 109.168 97.5747 105.004C94.1633 100.841 92.6788 97.4345 92.363 96.2517L91.1785 83.2407C90.3098 82.1367 88.0514 80.3546 85.9667 82.0579C83.3608 84.1869 77.6751 87.262 77.6751 93.6493C77.6751 98.1646 78.0303 104.335 78.9081 108.316M80.281 111.865C79.7256 111.241 79.272 109.967 78.9081 108.316M78.9081 108.316C77.1547 108.947 73.5531 110.824 73.174 113.284C73.0405 114.151 72.9814 115.141 72.9679 116.123M73.174 120.617C73.0718 119.698 72.943 117.926 72.9679 116.123M66.3039 85.133C67.1726 85.7638 68.8624 87.6879 68.6729 90.3374C68.436 93.6493 69.3836 104.058 68.6729 106.187C68.1044 107.89 71.2993 113.521 72.9679 116.123" stroke="#8D0000" stroke-width="3" stroke-linecap="round" stroke-linejoin="round"/>
<path d="M3.11719 148.413C3.11719 162.079 3.11719 191.271 3.11719 198.708" stroke="#8D0000" stroke-width="3" stroke-linecap="round" stroke-linejoin="round"/>
</svg>
