<svg width="85" height="193" viewBox="0 0 85 193" fill="none" xmlns="http://www.w3.org/2000/svg">
<path d="M52.2324 98.1125C50.9652 96.1448 48.3833 92.0205 48.1932 91.2649C47.9556 90.3204 45.5796 86.3062 42.7284 84.8894C40.4475 83.756 33.3829 81.1114 30.1357 79.9308C27.9181 79.065 22.5325 78.089 18.7309 81.1114C14.9293 84.1338 11.4445 92.9178 10.1773 96.932C8.4349 102.52 4.85506 113.839 4.4749 114.405C3.9997 115.114 0.19811 133.768 2.33651 151.713C4.04722 166.07 5.7421 170.289 6.3757 170.603C7.0093 172.65 7.89634 178.962 6.3757 187.841M48.906 109.211C46.6884 110.47 40.3524 109.872 32.7493 97.4042" stroke="#8D0000" stroke-width="3" stroke-linecap="round" stroke-linejoin="round"/>
<path d="M32.5588 94.4443C32.7152 95.2285 32.9342 96.9381 32.5588 97.5027C32.3802 97.7714 31.5895 98.3128 30.2127 98.5949M18.9506 95.6206C24.1817 98.826 27.9728 99.0537 30.2127 98.5949M30.2127 98.5949C30.6037 100.191 30.5412 103.572 27.1625 104.325C23.7839 105.078 19.0288 105.58 17.0736 105.737M61.8873 133.262C59.6192 130.596 60.4795 126.957 60.4795 125.263C60.4795 123.57 54.8485 120.401 53.4407 119.147C51.5637 116.324 47.9035 109.972 48.2789 107.148C48.7482 103.619 49.6867 97.5027 56.0216 97.5027C61.0896 97.5027 64.39 99.8553 65.4067 101.032L70.5685 104.325C74.1661 106.129 81.3613 110.677 81.3613 114.441C81.3613 118.206 82.1434 125.42 82.5344 128.557C83.3947 132.086 83.6606 140.508 77.8419 145.966C75.1828 149.809 69.6299 158.2 68.6914 161.023C67.7529 163.846 60.9488 170.826 57.664 173.962C57.1948 175.531 56.5378 181.161 57.664 191.136" stroke="#8D0000" stroke-width="3" stroke-linecap="round" stroke-linejoin="round"/>
<path d="M68.7188 102.137C68.5582 96.3065 67.9965 83.5271 67.0334 79.0496C67.0334 71.5094 67.0334 55.7293 67.0334 52.9309C67.0334 49.4329 66.0704 21.2154 61.7367 17.7173C58.2698 14.9189 55.798 15.1521 54.9955 15.6185C53.5509 15.8518 50.6137 16.9246 50.4211 19.3499C50.1803 22.3815 50.0396 38.9571 50.4211 41.0377C50.1803 45.2353 50.7569 54.6816 51.1384 57.0869" stroke="#8D0000" stroke-width="3" stroke-linecap="round" stroke-linejoin="round"/>
<path d="M51.1115 57.0546C51.1909 62.3506 51.1115 73.1762 50.1581 74.1108M50.036 21.376C49.9139 18.9195 49.729 14.7177 48.9663 10.7924C48.0129 5.88582 44.9143 2.14746 40.8623 2.14746C37.6207 2.14746 34.7446 4.95123 33.7117 6.35311C33.3939 8.37805 32.949 13.2691 33.7117 16.6336C33.8471 17.3967 34.0113 18.3605 34.186 19.4374M35.6186 76.2136C36.1906 75.2791 35.8569 59.9362 35.6186 52.3816C35.6186 50.7461 35.6186 35.7927 35.6186 31.587C35.6186 28.9391 34.8312 23.4163 34.186 19.4374M34.186 19.4374C33.3923 17.8797 30.6608 15.1382 26.0844 16.6336C21.5081 18.1289 20.364 23.7988 20.364 26.4468C20.4434 33.5341 20.4116 48.6433 19.6489 52.3816C18.6955 57.0546 15.3586 80.8866 16.0736 83.4567" stroke="#8D0000" stroke-width="3" stroke-linecap="round" stroke-linejoin="round"/>
</svg>
