<svg width="196" height="200" viewBox="0 0 196 200" fill="none" xmlns="http://www.w3.org/2000/svg">
<path d="M118.865 196C118.865 193.887 118.865 189.071 118.865 186.704C118.865 183.747 128.638 182.902 131.188 179.099C133.737 175.296 152.008 156.705 154.558 155.86C157.107 155.015 163.056 149.1 168.58 138.114C170.138 135.297 174.444 128.903 179.203 125.861C183.962 122.819 189.967 114.171 192.375 110.228C194.216 107.833 196.029 102.2 188.551 98.8194C181.072 95.4392 173.254 100.51 170.28 103.467C168.013 105.862 163.311 110.904 162.631 111.918C161.781 113.186 149.459 126.707 148.609 128.397C147.929 129.749 145.21 130.368 143.935 130.509C139.828 129.946 130.338 124.425 125.239 106.848C124.814 102.623 125.069 91.6371 129.488 81.4965C133.907 71.3559 139.544 54.7367 141.811 47.6946C144.077 39.1033 148.014 20.9065 145.635 16.8503C143.255 12.7941 140.111 12.0617 138.836 12.2025C137.136 12.0616 133.227 13.4699 131.188 20.2303C129.148 26.9906 128.355 30.6525 128.213 31.6384C125.664 37.8354 120.48 50.652 120.14 52.3421C119.715 54.4547 115.466 59.1025 110.792 72.6233C109.942 74.7359 106.883 78.7076 101.444 77.6936C101.161 77.6936 100.594 77.44 100.594 76.426C100.594 75.1584 101.869 64.5953 101.869 53.6097C102.01 51.0745 102.209 45.7507 101.869 44.7367C101.444 43.4691 100.169 13.0473 96.345 8.8221C93.2856 5.44191 91.1044 4.87854 90.3962 5.01938C87.7051 4.87868 82.4078 6.11837 82.7478 12.2027C83.0877 18.2871 83.7392 22.625 84.0225 24.0334C83.7392 31.9205 83.2577 48.1173 83.5976 49.8074C84.0225 51.92 81.8979 62.9056 82.3229 72.2012C82.3229 73.8913 81.3031 77.1869 77.2239 76.8489C76.0908 76.8486 72.2949 72.2004 66.1762 53.6097C60.0575 35.0189 56.5449 25.301 55.5534 22.7658C54.4203 20.5124 50.8794 16.5125 45.7804 18.5406C40.6815 20.5687 41.673 26.7094 42.806 29.5262C44.789 40.0893 49.1797 61.8916 50.8794 64.5957C53.0039 67.9759 58.5278 86.1445 59.3776 88.6796C60.0575 90.7077 55.9783 92.9048 53.8538 93.7499C51.3043 94.1721 42.2112 91.2985 26.2345 76.426C21.4188 71.215 11.1076 60.7085 8.38818 60.3705C5.66875 60.0325 3.85579 61.3564 3.28924 62.0606C1.58959 64.0321 0.718282 68.9061 6.26362 76.426C10.9377 82.7643 13.0622 85.2994 17.3113 89.9472C23.4017 96.0034 37.1122 109.214 43.231 113.609C43.6559 114.313 45.0156 116.989 47.0552 122.059C49.0947 127.129 50.7377 138.256 51.3043 143.185C51.8708 147.833 53.4288 154.593 55.9783 160.086C57.2531 164.734 59.4626 176.565 61.5022 179.945C61.9271 181.494 62.437 186.452 61.0773 193.888" stroke="#8D0000" stroke-width="3" stroke-linecap="round" stroke-linejoin="round"/>
</svg>
