<svg width="140" height="200" viewBox="0 0 140 200" fill="none" xmlns="http://www.w3.org/2000/svg">
<path d="M41.3943 185C43.8306 170.235 47.9722 138.439 45.0487 129.369C40.3502 114.78 30.9532 83.5985 30.9532 75.5834C30.4311 73.3863 28.9171 68.3593 27.0377 65.8282C25.1583 63.2971 26.2546 55.4578 27.0377 51.8545C29.039 49.4816 34.7121 44.4195 41.3943 43.1539C48.355 38.1445 63.7381 28.0729 69.5852 27.862C73.1526 26.3679 80.8616 25.7527 83.1587 35.2443M83.1587 35.2443C83.8548 38.7597 85.7168 46.1069 87.5962 47.3725C89.9454 48.9544 78.9822 69.7831 77.4161 69.7831C76.1978 70.7498 70.5247 72.736 57.5779 72.9469M83.1587 35.2443C84.6378 32.6956 89.2146 28.1784 95.6881 30.4986C98.0373 34.3655 103.728 42.6267 107.695 44.7359C109.088 46.4057 111.037 51.7491 107.695 59.7642C106.129 64.7736 103.153 77.7982 103.78 89.8208C103.084 97.7305 100.7 114.71 96.7322 119.35C91.7726 125.151 89.4234 139.388 89.9454 146.77C90.4675 154.153 92.5557 185 93.8609 185" stroke="#8D0000" stroke-width="3" stroke-linecap="round"/>
<path d="M56.873 49.0515C58.8566 50.9357 63.3646 54.6056 65.5285 54.2124C65.5285 51.2633 68.2333 43.3173 69.5857 39.7129" stroke="#8D0000" stroke-width="3" stroke-linecap="round"/>
<path d="M65.9548 54.2412C64.5843 58.4182 62.6656 67.535 65.9548 70.586" stroke="#8D0000" stroke-width="3" stroke-linecap="round"/>
</svg>
