<svg width="137" height="198" viewBox="0 0 137 198" fill="none" xmlns="http://www.w3.org/2000/svg">
<path d="M14.4562 66.8324C13.2859 60.2015 13.646 46.7218 24.4495 45.8498M47.1368 82.6374C51.0081 81.6382 57.2373 79.5404 60.101 74.1899C67.3934 60.5648 68.1136 54.3881 72.7951 43.3973C74.5957 39.9456 82.8964 26.2298 90.8909 29.4998C98.8855 32.7698 98.5434 40.1272 97.373 43.3972L87.3798 64.1073C83.5986 73.6448 79.2772 84.8174 77.6567 96.5348C77.0221 101.123 71.1746 124.057 60.101 132.505C51.2422 139.263 50.2878 150.581 50.918 155.395C51.4582 166.931 53.0247 190.602 54.9694 193" stroke="#8D0000" stroke-width="3" stroke-linecap="round"/>
<path d="M2 196C3.4443 182.425 5.89962 153.98 4.16646 148.802C2.43329 143.624 5.7913 136.396 7.68695 133.429C7.95775 115.898 9.74508 78.4637 14.7279 68.9702C15.9014 68.1611 18.3567 65.6799 18.79 62.2277C19.3316 57.9124 21.2273 44.697 36.6633 44.4273C49.0121 44.2116 64.9175 42.7192 71.3266 42M98.6781 46.0455C107.886 47.2142 126.571 49.8214 127.654 50.9002M127.654 50.9002C129.008 52.2487 131.175 60.0701 123.592 62.2277C117.526 63.9538 107.524 62.9469 103.282 62.2277C100.213 63.3065 93.4786 65.4641 91.0955 65.4641M127.654 50.9002C131.265 51.3497 137.566 53.9208 133.883 60.6095C130.2 67.2981 113.753 66.6328 105.99 65.4641C104.04 67.5361 93.9841 68.6648 89.1998 68.9702" stroke="#8D0000" stroke-width="3" stroke-linecap="round"/>
<path d="M14.4562 66.8324C13.2859 60.2015 13.646 46.7218 24.4495 45.8498M47.1368 82.6374C51.0081 81.6382 57.2373 79.5404 60.101 74.1899C67.3934 60.5648 68.1136 54.3881 72.7951 43.3973C74.5957 39.9456 82.8964 26.2298 90.8909 29.4998C98.8855 32.7698 98.5434 40.1272 97.373 43.3972L87.3798 64.1073C83.5986 73.6448 79.2772 84.8174 77.6567 96.5348C77.0221 101.123 71.1746 124.057 60.101 132.505C51.2422 139.263 50.2878 150.581 50.918 155.395C51.4582 166.931 53.0247 190.602 54.9694 193" stroke="#8D0000" stroke-width="3" stroke-linecap="round"/>
<path d="M2 196C3.4443 182.425 5.89962 153.98 4.16646 148.802C2.43329 143.624 5.7913 136.396 7.68695 133.429C7.95775 115.898 9.74508 78.4637 14.7279 68.9702C15.9014 68.1611 18.3567 65.6799 18.79 62.2277C19.3316 57.9124 21.2273 44.697 36.6633 44.4273C49.0121 44.2116 64.9175 42.7192 71.3266 42M98.6781 46.0455C107.886 47.2142 126.571 49.8214 127.654 50.9002M127.654 50.9002C129.008 52.2487 131.175 60.0701 123.592 62.2277C117.526 63.9538 107.524 62.9469 103.282 62.2277C100.213 63.3065 93.4786 65.4641 91.0955 65.4641M127.654 50.9002C131.265 51.3497 137.566 53.9208 133.883 60.6095C130.2 67.2981 113.753 66.6328 105.99 65.4641C104.04 67.5361 93.9841 68.6648 89.1998 68.9702" stroke="#8D0000" stroke-width="3" stroke-linecap="round"/>
<path d="M2 196C3.4443 182.425 5.89962 153.98 4.16646 148.802C2.43329 143.624 5.7913 136.396 7.68695 133.429C7.95775 115.898 9.74508 78.4637 14.7279 68.9702C15.9014 68.1611 18.3567 65.6799 18.79 62.2277C19.3316 57.9124 21.2273 44.697 36.6633 44.4273C49.0121 44.2116 64.9175 42.7192 71.3266 42M98.6781 46.0455C107.886 47.2142 126.571 49.8214 127.654 50.9002M127.654 50.9002C129.008 52.2487 131.175 60.0701 123.592 62.2277C117.526 63.9538 107.524 62.9469 103.282 62.2277C100.213 63.3065 93.4786 65.4641 91.0955 65.4641M127.654 50.9002C131.265 51.3497 137.566 53.9208 133.883 60.6095C130.2 67.2981 113.753 66.6328 105.99 65.4641C104.04 67.5361 93.9841 68.6648 89.1998 68.9702" stroke="#8D0000" stroke-width="3" stroke-linecap="round"/>
</svg>
