<svg width="140" height="200" viewBox="0 0 140 200" fill="none" xmlns="http://www.w3.org/2000/svg">
<path d="M89.0541 196C88.923 192.526 89.7904 179.085 92.9356 176.199C96.8672 172.591 100.406 173.393 104.73 165.376C108.19 158.962 113.773 142.927 116.132 135.712C116.787 132.772 117.704 125.851 116.132 121.682C114.559 117.513 112.593 104.177 111.807 98.0307C111.807 93.354 111.492 83.1988 110.234 79.9919C108.662 75.9832 107.089 72.3755 102.371 72.7763C98.5969 73.097 94.5081 77.7203 92.9355 79.9919C92.4873 81.2713 91.7695 84.1008 91.4611 87.6083M94.9012 123.686C93.3286 122.724 94.246 120.345 94.9012 119.276C95.4255 120.078 96.1593 121.04 94.9012 118.475C93.6432 115.909 93.0665 105.914 92.9355 101.238C92.5423 100.837 91.6774 98.5919 91.3629 92.8195C91.2635 90.995 91.3185 89.2292 91.4611 87.6083M91.4611 87.6083C91.5594 84.6686 91.8347 78.2281 92.1492 75.9832C92.4637 73.7384 92.2802 65.4272 92.1492 61.5522C91.8871 59.0134 91.5201 53.3746 92.1492 51.1297C92.7782 48.8849 91.8871 40.8409 91.3629 37.0995C90.7076 28.9486 88.139 12.0857 83.1066 9.84083C78.0743 7.596 75.2436 10.5089 74.4573 12.246C74.2733 12.6211 73.9601 13.4966 73.7898 14.6507M72.8847 79.9919L74.8504 55.1379C75.2436 43.9137 73.671 18.6593 73.671 16.2542C73.671 15.6808 73.7175 15.1406 73.7898 14.6507M73.7898 14.6507C73.4881 12.9136 72.7274 9.19896 72.0984 8.23689C71.312 7.0343 68.9531 2.6248 64.6284 3.02567C61.1687 3.34636 58.9932 5.83234 58.338 7.03525C57.9394 7.94966 57.4196 11.4135 57.7464 18.6603M55.5859 76.7854C55.5859 70.0509 56.6343 57.6776 57.1585 52.3328C56.844 43.6741 57.8138 31.6215 58.338 26.6775C58.0365 23.6037 57.8494 20.9441 57.7464 18.6603M57.7464 18.6603C57.9436 17.0568 57.3944 13.7698 53.6201 13.4491C49.8459 13.1284 47.5918 15.1855 46.9365 16.2542C45.8881 17.9919 43.5554 24.8343 42.6118 38.3026C42.3984 40.5877 42.0981 43.9893 41.817 47.5224M41.0392 84.4018C40.4102 78.9501 40.7771 66.363 41.0392 60.7509C41.0392 58.0893 41.4077 52.6665 41.817 47.5224M41.817 47.5224C41.4267 46.3198 39.8598 43.9147 36.7145 43.9147C33.5693 43.9147 31.4725 46.3198 30.8172 47.5224C28.7204 53.8026 24.4482 69.6501 24.1336 82.7984C23.8191 95.9467 23.4784 101.104 23.3473 102.04C23.0852 105.514 22.7183 115.268 23.3473 126.492C23.9764 137.717 33.9625 170.587 33.9625 170.587C33.9625 170.587 36.8718 174.275 37.5009 176.199C38.1299 178.124 37.763 192.125 37.5009 196" stroke="#8D0000" stroke-width="3" stroke-linecap="round" stroke-linejoin="round"/>
</svg>
