<svg width="140" height="200" viewBox="0 0 140 200" fill="none" xmlns="http://www.w3.org/2000/svg">
<path d="M50.9459 196C51.077 192.526 50.2096 179.085 47.0644 176.199C43.1328 172.591 39.5945 173.393 35.2698 165.376C31.81 158.962 26.2272 142.927 23.8683 135.712C23.2131 132.772 22.2957 125.851 23.8683 121.682C25.4409 117.513 27.4068 104.177 28.1932 98.0307C28.1932 93.354 28.5077 83.1988 29.7658 79.9919C31.3384 75.9832 32.911 72.3755 37.6288 72.7763C41.4031 73.097 45.4919 77.7203 47.0645 79.9919C47.5127 81.2713 48.2305 84.1008 48.5389 87.6083M45.0988 123.686C46.6714 122.724 45.754 120.345 45.0988 119.276C44.5745 120.078 43.8407 121.04 45.0988 118.475C46.3568 115.909 46.9335 105.914 47.0645 101.238C47.4577 100.837 48.3226 98.5919 48.6371 92.8195C48.7365 90.995 48.6815 89.2292 48.5389 87.6083M48.5389 87.6083C48.4406 84.6686 48.1653 78.2281 47.8508 75.9832C47.5363 73.7384 47.7198 65.4272 47.8508 61.5522C48.1129 59.0134 48.4799 53.3746 47.8508 51.1297C47.2218 48.8849 48.1129 40.8409 48.6371 37.0995C49.2924 28.9486 51.861 12.0857 56.8934 9.84083C61.9257 7.596 64.7564 10.5089 65.5427 12.246C65.7267 12.6211 66.0399 13.4966 66.2102 14.6507M67.1153 79.9919L65.1496 55.1379C64.7564 43.9137 66.329 18.6593 66.329 16.2542C66.329 15.6808 66.2825 15.1406 66.2102 14.6507M66.2102 14.6507C66.5119 12.9136 67.2726 9.19896 67.9016 8.23689C68.688 7.0343 71.0469 2.6248 75.3716 3.02567C78.8313 3.34636 81.0068 5.83234 81.662 7.03525C82.0606 7.94966 82.5804 11.4135 82.2536 18.6603M84.4141 76.7854C84.4141 70.0509 83.3657 57.6776 82.8415 52.3328C83.156 43.6741 82.1862 31.6215 81.662 26.6775C81.9635 23.6037 82.1506 20.9441 82.2536 18.6603M82.2536 18.6603C82.0564 17.0568 82.6056 13.7698 86.3799 13.4491C90.1541 13.1284 92.4082 15.1855 93.0635 16.2542C94.1119 17.9919 96.4446 24.8343 97.3882 38.3026C97.6016 40.5877 97.9019 43.9893 98.183 47.5224M98.9608 84.4018C99.5898 78.9501 99.2229 66.363 98.9608 60.7509C98.9608 58.0893 98.5923 52.6665 98.183 47.5224M98.183 47.5224C98.5733 46.3198 100.14 43.9147 103.285 43.9147C106.431 43.9147 108.527 46.3198 109.183 47.5224C111.28 53.8026 115.552 69.6501 115.866 82.7984C116.181 95.9467 116.522 101.104 116.653 102.04C116.915 105.514 117.282 115.268 116.653 126.492C116.024 137.717 106.038 170.587 106.038 170.587C106.038 170.587 103.128 174.275 102.499 176.199C101.87 178.124 102.237 192.125 102.499 196" stroke="#8D0000" stroke-width="3" stroke-linecap="round" stroke-linejoin="round"/>
</svg>
