<svg width="99" height="196" viewBox="0 0 99 196" fill="none" xmlns="http://www.w3.org/2000/svg">
<path d="M34.2913 17.4371C34.2008 17.0755 34.8341 16.7862 38.0911 18.522C41.3481 20.2578 45.9621 25.212 47.862 27.4721M47.862 27.4721C47.862 29.9131 47.5363 35.6086 46.2335 38.8632C48.5858 40.6713 53.2903 46.0776 53.2903 53.2377C53.2903 54.2322 53.2903 57.0347 53.2903 60.2893C55.1902 63.8152 58.9901 71.4635 58.9901 73.8502C59.8043 74.7542 61.8128 76.3996 63.3327 75.7487C64.9612 72.9461 68.381 65.9307 69.0324 60.2893C71.5656 52.6953 77.5549 37.2902 81.2461 36.4223C83.2365 34.7046 88.9543 32.788 95.9025 38.8632C97.2596 40.3097 98.4539 46.62 92.3741 60.2893C84.7745 77.376 81.2461 90.1232 81.2461 98.8021C81.2461 105.745 71.8371 121.765 67.1325 128.907C62.5185 133.97 52.5847 144.15 49.7619 144.367M47.862 27.4721C46.125 24.6515 50.7571 16.7139 53.2903 13.0977M49.7619 144.367C46.2335 144.638 41.8909 159.283 41.8909 162.809M49.7619 144.367C48.6763 158.47 48.1877 187.002 54.9188 188.304" stroke="#8D0000" stroke-width="3" stroke-linecap="round"/>
<path d="M64.9289 12.8494C65.3788 9.33277 63.903 2.51595 54.4001 3.38158C44.8972 4.2472 35.6823 2.84059 32.2627 2.02907C28.3931 1.6684 20.546 4.51776 20.1141 18.8006C19.5741 36.6542 19.0342 39.9003 20.1141 42.3349C20.978 44.2826 19.0341 48.7369 17.9541 50.7207C17.2341 53.4258 16.2261 59.2687 17.9541 61" stroke="#8D0000" stroke-width="3" stroke-linecap="round"/>
<path d="M48.2703 27.1604C50.6274 32.3232 56.8102 41.7249 62.6848 38.0295C63.954 37.8483 66.3837 36.3448 65.9485 31.7798L64.0447 15.4762C63.7727 12.5778 60.7266 7.05273 50.718 8.13963C40.7094 9.22654 35.4875 8.59251 34.1277 8.13963C30.6827 7.77731 23.9559 9.71559 24.6086 20.3672C23.9739 24.9866 22.8134 35.4208 23.2485 40.2032C20.9822 44.1885 16.6671 54.6047 17.5374 64.3868C15.9963 81.2338 11.8804 117.754 7.74637 129.058C5.29861 133.043 0.78386 145.089 2.30691 161.393L3.93887 194" stroke="#8D0000" stroke-width="3" stroke-linecap="round"/>
</svg>
