<svg width="529" height="769" viewBox="0 0 529 769" fill="none" xmlns="http://www.w3.org/2000/svg">
<path d="M203.5 79C203.5 78.1716 202.828 77.5 202 77.5C201.172 77.5 200.5 78.1716 200.5 79L203.5 79ZM289.438 297.499C290.265 297.533 290.964 296.89 290.999 296.062L291.561 282.574C291.595 281.746 290.952 281.048 290.125 281.013C289.297 280.979 288.598 281.622 288.563 282.449L288.064 294.439L276.074 293.939C275.246 293.905 274.548 294.548 274.513 295.375C274.479 296.203 275.122 296.902 275.949 296.937L289.438 297.499ZM200.812 83.9916C200.904 84.8149 201.646 85.408 202.469 85.3162C203.292 85.2245 203.885 84.4826 203.794 83.6593L200.812 83.9916ZM205.396 93.1942C205.226 92.3835 204.43 91.8645 203.619 92.035C202.809 92.2055 202.29 93.001 202.46 93.8117L205.396 93.1942ZM204.75 103.466C204.959 104.268 205.778 104.749 206.579 104.541C207.381 104.332 207.862 103.514 207.654 102.712L204.75 103.466ZM210.247 112.09C210.016 111.294 209.183 110.837 208.388 111.069C207.592 111.301 207.135 112.133 207.367 112.929L210.247 112.09ZM210.226 122.353C210.474 123.143 211.316 123.583 212.106 123.334C212.897 123.086 213.336 122.244 213.088 121.454L210.226 122.353ZM216.11 130.79C215.848 130.004 214.999 129.579 214.213 129.84C213.427 130.101 213.001 130.951 213.263 131.737L216.11 130.79ZM216.43 141.05C216.701 141.832 217.556 142.247 218.339 141.975C219.121 141.703 219.535 140.848 219.263 140.066L216.43 141.05ZM222.527 149.289C222.246 148.509 221.387 148.105 220.608 148.386C219.828 148.666 219.424 149.526 219.705 150.305L222.527 149.289ZM223.081 159.531C223.37 160.307 224.233 160.703 225.01 160.414C225.786 160.125 226.182 159.262 225.893 158.485L223.081 159.531ZM229.35 167.654C229.054 166.88 228.187 166.493 227.413 166.789C226.639 167.084 226.252 167.951 226.547 168.725L229.35 167.654ZM230.096 177.889C230.399 178.661 231.269 179.041 232.04 178.738C232.811 178.436 233.191 177.565 232.889 176.794L230.096 177.889ZM236.506 185.905C236.197 185.136 235.323 184.763 234.555 185.072C233.786 185.381 233.413 186.255 233.722 187.023L236.506 185.905ZM237.423 196.127C237.738 196.893 238.615 197.259 239.381 196.944C240.147 196.629 240.513 195.752 240.198 194.986L237.423 196.127ZM243.963 204.037C243.642 203.274 242.762 202.915 241.999 203.236C241.235 203.558 240.877 204.437 241.198 205.201L243.963 204.037ZM245.048 214.243C245.376 215.004 246.258 215.355 247.019 215.027C247.78 214.7 248.131 213.817 247.803 213.056L245.048 214.243ZM251.72 222.04C251.385 221.283 250.5 220.939 249.742 221.274C248.984 221.608 248.641 222.494 248.975 223.252L251.72 222.04ZM252.984 232.222C253.326 232.977 254.215 233.312 254.969 232.97C255.724 232.628 256.059 231.74 255.717 230.985L252.984 232.222ZM259.801 239.881C259.451 239.13 258.559 238.805 257.808 239.154C257.057 239.504 256.732 240.396 257.081 241.147L259.801 239.881ZM261.275 250.016C261.634 250.762 262.53 251.077 263.277 250.718C264.023 250.359 264.338 249.463 263.979 248.716L261.275 250.016ZM268.298 257.539C267.928 256.798 267.027 256.497 266.286 256.867C265.544 257.237 265.243 258.138 265.613 258.879L268.298 257.539ZM270.094 267.659C270.478 268.393 271.385 268.677 272.119 268.293C272.853 267.909 273.137 267.003 272.753 266.269L270.094 267.659ZM277.36 274.821C276.957 274.098 276.043 273.837 275.32 274.24C274.596 274.643 274.336 275.557 274.739 276.281L277.36 274.821ZM279.738 284.871C280.171 285.577 281.095 285.799 281.801 285.366C282.507 284.932 282.729 284.009 282.295 283.303L279.738 284.871ZM287.657 291.363C287.164 290.697 286.224 290.558 285.559 291.051C284.893 291.544 284.753 292.483 285.247 293.149L287.657 291.363ZM200.5 79C200.5 80.4897 200.608 82.161 200.812 83.9916L203.794 83.6593C203.598 81.9072 203.5 80.3507 203.5 79L200.5 79ZM202.46 93.8117C203.088 96.7959 203.856 100.026 204.75 103.466L207.654 102.712C206.769 99.3074 206.012 96.124 205.396 93.1942L202.46 93.8117ZM207.367 112.929C208.25 115.958 209.205 119.105 210.226 122.353L213.088 121.454C212.072 118.224 211.123 115.097 210.247 112.09L207.367 112.929ZM213.263 131.737C214.274 134.778 215.331 137.887 216.43 141.05L219.263 140.066C218.169 136.914 217.116 133.818 216.11 130.79L213.263 131.737ZM219.705 150.305C220.8 153.346 221.927 156.424 223.081 159.531L225.893 158.485C224.742 155.388 223.619 152.319 222.527 149.289L219.705 150.305ZM226.547 168.725C227.71 171.766 228.894 174.824 230.096 177.889L232.889 176.794C231.69 173.736 230.509 170.687 229.35 167.654L226.547 168.725ZM233.722 187.023C234.943 190.062 236.178 193.099 237.423 196.127L240.198 194.986C238.955 191.966 237.724 188.936 236.506 185.905L233.722 187.023ZM241.198 205.201C242.476 208.236 243.76 211.253 245.048 214.243L247.803 213.056C246.519 210.074 245.237 207.065 243.963 204.037L241.198 205.201ZM248.975 223.252C250.314 226.284 251.651 229.278 252.984 232.222L255.717 230.985C254.388 228.049 253.054 225.065 251.72 222.04L248.975 223.252ZM257.081 241.147C258.491 244.175 259.891 247.135 261.275 250.016L263.979 248.716C262.6 245.847 261.206 242.898 259.801 239.881L257.081 241.147ZM265.613 258.879C267.136 261.93 268.632 264.862 270.094 267.659L272.753 266.269C271.3 263.491 269.812 260.575 268.298 257.539L265.613 258.879ZM274.739 276.281C276.474 279.398 278.145 282.274 279.738 284.871L282.295 283.303C280.729 280.748 279.079 277.91 277.36 274.821L274.739 276.281ZM285.247 293.149C286.35 294.638 287.402 295.936 288.396 297.016L290.604 294.984C289.701 294.003 288.717 292.793 287.657 291.363L285.247 293.149Z" fill="#8D0000"/>
<path d="M322.441 55.4176C322.672 54.6219 322.213 53.7899 321.418 53.5593C320.622 53.3287 319.79 53.7867 319.559 54.5824L322.441 55.4176ZM306.439 285.561C307.025 286.146 307.975 286.146 308.561 285.561L318.107 276.015C318.692 275.429 318.692 274.479 318.107 273.893C317.521 273.308 316.571 273.308 315.985 273.893L307.5 282.379L299.015 273.893C298.429 273.308 297.479 273.308 296.893 273.893C296.308 274.479 296.308 275.429 296.893 276.015L306.439 285.561ZM309.027 279.813C309.035 278.984 308.37 278.306 307.541 278.298C306.713 278.291 306.035 278.956 306.027 279.784L309.027 279.813ZM306.154 270.145C306.141 270.974 306.801 271.656 307.63 271.669C308.458 271.682 309.14 271.021 309.153 270.193L306.154 270.145ZM309.324 260.63C309.34 259.802 308.682 259.117 307.853 259.101C307.025 259.085 306.341 259.743 306.324 260.571L309.324 260.63ZM306.527 250.92C306.508 251.748 307.165 252.434 307.993 252.453C308.821 252.471 309.507 251.815 309.526 250.987L306.527 250.92ZM309.751 241.433C309.772 240.604 309.117 239.916 308.289 239.896C307.461 239.875 306.773 240.53 306.752 241.358L309.751 241.433ZM307.001 231.773C306.978 232.602 307.631 233.291 308.46 233.314C309.288 233.336 309.977 232.683 310 231.855L307.001 231.773ZM310.271 222.263C310.295 221.435 309.644 220.744 308.815 220.719C307.987 220.695 307.296 221.346 307.272 222.174L310.271 222.263ZM307.566 212.574C307.539 213.402 308.189 214.095 309.017 214.121C309.845 214.147 310.538 213.497 310.564 212.669L307.566 212.574ZM310.88 203.079C310.908 202.251 310.26 201.557 309.432 201.529C308.604 201.5 307.91 202.149 307.882 202.977L310.88 203.079ZM308.221 193.383C308.191 194.211 308.837 194.906 309.665 194.937C310.493 194.967 311.189 194.321 311.219 193.493L308.221 193.383ZM311.583 183.91C311.616 183.082 310.971 182.385 310.144 182.352C309.316 182.32 308.618 182.964 308.586 183.792L311.583 183.91ZM308.977 174.203C308.942 175.031 309.585 175.73 310.412 175.765C311.24 175.8 311.939 175.158 311.974 174.33L308.977 174.203ZM312.394 164.753C312.432 163.926 311.791 163.224 310.964 163.187C310.136 163.149 309.435 163.789 309.397 164.617L312.394 164.753ZM309.849 155.032C309.809 155.86 310.447 156.563 311.274 156.604C312.101 156.644 312.805 156.006 312.846 155.179L309.849 155.032ZM313.333 145.608C313.376 144.78 312.741 144.074 311.914 144.03C311.087 143.987 310.381 144.622 310.337 145.449L313.333 145.608ZM310.865 135.863C310.818 136.69 311.45 137.399 312.277 137.447C313.104 137.494 313.813 136.862 313.86 136.035L310.865 135.863ZM314.435 126.462C314.486 125.636 313.858 124.923 313.031 124.872C312.205 124.82 311.492 125.448 311.44 126.275L314.435 126.462ZM312.071 116.684C312.014 117.511 312.638 118.227 313.464 118.284C314.291 118.341 315.007 117.717 315.064 116.89L312.071 116.684ZM315.759 107.323C315.822 106.497 315.204 105.776 314.378 105.712C313.552 105.649 312.831 106.267 312.768 107.093L315.759 107.323ZM313.547 97.5114C313.476 98.3368 314.087 99.0637 314.912 99.135C315.737 99.2063 316.464 98.595 316.536 97.7696L313.547 97.5114ZM317.416 88.2584C317.498 87.434 316.896 86.6993 316.071 86.6174C315.247 86.5355 314.512 87.1374 314.43 87.9618L317.416 88.2584ZM315.465 78.3825C315.368 79.2052 315.957 79.9509 316.779 80.048C317.602 80.1452 318.348 79.557 318.445 78.7342L315.465 78.3825ZM319.692 69.276C319.813 68.4565 319.248 67.6936 318.428 67.5719C317.609 67.4502 316.846 68.0158 316.724 68.8353L319.692 69.276ZM318.403 59.2815C318.23 60.0917 318.747 60.8884 319.558 61.061C320.368 61.2335 321.165 60.7165 321.337 59.9063L318.403 59.2815ZM309 284.5C309 283.299 309.009 281.725 309.027 279.813L306.027 279.784C306.009 281.702 306 283.286 306 284.5H309ZM309.153 270.193C309.199 267.305 309.256 264.103 309.324 260.63L306.324 260.571C306.257 264.048 306.2 267.253 306.154 270.145L309.153 270.193ZM309.526 250.987C309.594 247.939 309.669 244.747 309.751 241.433L306.752 241.358C306.67 244.676 306.595 247.869 306.527 250.92L309.526 250.987ZM310 231.855C310.084 228.735 310.175 225.534 310.271 222.263L307.272 222.174C307.176 225.448 307.085 228.652 307.001 231.773L310 231.855ZM310.564 212.669C310.664 209.517 310.769 206.317 310.88 203.079L307.882 202.977C307.771 206.217 307.666 209.42 307.566 212.574L310.564 212.669ZM311.219 193.493C311.336 190.32 311.457 187.123 311.583 183.91L308.586 183.792C308.459 187.008 308.338 190.208 308.221 193.383L311.219 193.493ZM311.974 174.33C312.109 171.141 312.249 167.945 312.394 164.753L309.397 164.617C309.252 167.812 309.112 171.011 308.977 174.203L311.974 174.33ZM312.846 155.179C313.002 151.973 313.165 148.779 313.333 145.608L310.337 145.449C310.169 148.625 310.006 151.822 309.849 155.032L312.846 155.179ZM313.86 136.035C314.046 132.806 314.237 129.612 314.435 126.462L311.44 126.275C311.243 129.43 311.051 132.63 310.865 135.863L313.86 136.035ZM315.064 116.89C315.288 113.633 315.52 110.44 315.759 107.323L312.768 107.093C312.528 110.219 312.296 113.42 312.071 116.684L315.064 116.89ZM316.536 97.7696C316.82 94.4803 317.113 91.3039 317.416 88.2584L314.43 87.9618C314.126 91.0216 313.832 94.2108 313.547 97.5114L316.536 97.7696ZM318.445 78.7342C318.846 75.3357 319.262 72.1717 319.692 69.276L316.724 68.8353C316.289 71.7664 315.869 74.9606 315.465 78.3825L318.445 78.7342ZM321.337 59.9063C321.699 58.2071 322.067 56.707 322.441 55.4176L319.559 54.5824C319.16 55.959 318.775 57.5323 318.403 59.2815L321.337 59.9063Z" fill="#8D0000"/>
<path d="M49.6092 406.552C48.8094 406.768 48.336 407.591 48.5518 408.391C48.7676 409.191 49.591 409.664 50.3908 409.448L49.6092 406.552ZM322.947 317.394C323.165 316.595 322.694 315.77 321.894 315.553L308.869 312.005C308.069 311.787 307.245 312.259 307.027 313.058C306.81 313.857 307.281 314.682 308.08 314.899L319.659 318.053L316.505 329.631C316.287 330.431 316.759 331.255 317.558 331.473C318.357 331.69 319.182 331.219 319.399 330.42L322.947 317.394ZM55.288 408.12C56.0873 407.902 56.5587 407.078 56.3409 406.279C56.1232 405.479 55.2987 405.008 54.4994 405.226L55.288 408.12ZM64.384 402.51C63.5856 402.731 63.1176 403.558 63.3386 404.356C63.5596 405.154 64.3861 405.622 65.1845 405.401L64.384 402.51ZM75.0341 402.656C75.8317 402.432 76.2969 401.604 76.0732 400.806C75.8494 400.009 75.0214 399.544 74.2238 399.767L75.0341 402.656ZM84.0847 396.984C83.2877 397.211 82.8251 398.04 83.0513 398.837C83.2775 399.634 84.107 400.097 84.9039 399.87L84.0847 396.984ZM94.7718 397.054C95.5681 396.825 96.0283 395.994 95.7998 395.198C95.5713 394.402 94.7405 393.942 93.9442 394.17L94.7718 397.054ZM103.794 391.329C102.998 391.559 102.54 392.391 102.771 393.187C103.001 393.983 103.833 394.441 104.629 394.21L103.794 391.329ZM114.473 391.341C115.268 391.108 115.724 390.275 115.491 389.48C115.258 388.685 114.425 388.229 113.63 388.462L114.473 391.341ZM123.448 385.572C122.654 385.807 122.2 386.641 122.435 387.436C122.67 388.23 123.505 388.684 124.299 388.449L123.448 385.572ZM134.118 385.529C134.912 385.292 135.363 384.457 135.126 383.663C134.889 382.869 134.053 382.418 133.26 382.655L134.118 385.529ZM143.064 379.711C142.271 379.95 141.822 380.787 142.062 381.58C142.301 382.373 143.138 382.822 143.931 382.583L143.064 379.711ZM153.736 379.608C154.528 379.366 154.975 378.528 154.733 377.736C154.491 376.943 153.653 376.497 152.861 376.739L153.736 379.608ZM162.647 373.738C161.855 373.982 161.411 374.821 161.655 375.613C161.899 376.405 162.739 376.849 163.531 376.605L162.647 373.738ZM173.316 373.571C174.107 373.324 174.548 372.483 174.301 371.693C174.055 370.902 173.214 370.46 172.423 370.707L173.316 373.571ZM182.19 367.644C181.4 367.893 180.961 368.736 181.211 369.526C181.46 370.316 182.302 370.754 183.092 370.505L182.19 367.644ZM192.86 367.404C193.649 367.152 194.084 366.308 193.832 365.519C193.58 364.73 192.736 364.294 191.947 364.546L192.86 367.404ZM201.692 361.412C200.904 361.667 200.472 362.513 200.727 363.301C200.982 364.089 201.828 364.521 202.616 364.266L201.692 361.412ZM212.361 361.087C213.148 360.829 213.576 359.981 213.318 359.194C213.059 358.407 212.211 357.979 211.424 358.237L212.361 361.087ZM221.142 355.019C220.356 355.281 219.932 356.131 220.194 356.917C220.456 357.703 221.306 358.127 222.092 357.864L221.142 355.019ZM231.806 354.593C232.591 354.326 233.011 353.474 232.744 352.69C232.478 351.906 231.626 351.486 230.841 351.752L231.806 354.593ZM240.52 348.432C239.737 348.703 239.322 349.557 239.594 350.34C239.865 351.123 240.719 351.538 241.502 351.266L240.52 348.432ZM251.174 347.878C251.955 347.602 252.364 346.745 252.087 345.964C251.81 345.183 250.953 344.774 250.172 345.051L251.174 347.878ZM259.791 341.601C259.013 341.883 258.611 342.744 258.894 343.523C259.177 344.301 260.037 344.703 260.816 344.42L259.791 341.601ZM270.451 340.868C271.227 340.578 271.62 339.714 271.33 338.938C271.039 338.162 270.175 337.768 269.399 338.059L270.451 340.868ZM278.975 334.412C278.203 334.712 277.819 335.581 278.119 336.353C278.419 337.125 279.288 337.509 280.06 337.209L278.975 334.412ZM289.615 333.423C290.382 333.112 290.752 332.238 290.441 331.47C290.13 330.702 289.255 330.332 288.488 330.643L289.615 333.423ZM297.887 326.729C297.126 327.055 296.773 327.937 297.1 328.698C297.427 329.46 298.309 329.812 299.07 329.486L297.887 326.729ZM308.497 325.29C309.249 324.941 309.575 324.049 309.227 323.298C308.878 322.546 307.986 322.22 307.235 322.568L308.497 325.29ZM316.318 318.117C315.584 318.501 315.3 319.407 315.683 320.141C316.067 320.875 316.973 321.16 317.707 320.776L316.318 318.117ZM50.3908 409.448C51.9727 409.021 53.606 408.578 55.288 408.12L54.4994 405.226C52.8197 405.683 51.1887 406.126 49.6092 406.552L50.3908 409.448ZM65.1845 405.401C68.3453 404.526 71.633 403.61 75.0341 402.656L74.2238 399.767C70.8259 400.721 67.5415 401.636 64.384 402.51L65.1845 405.401ZM84.9039 399.87C88.1162 398.958 91.4086 398.019 94.7718 397.054L93.9442 394.17C90.5839 395.134 87.2942 396.073 84.0847 396.984L84.9039 399.87ZM104.629 394.21C107.86 393.273 111.144 392.316 114.473 391.341L113.63 388.462C110.303 389.436 107.022 390.393 103.794 391.329L104.629 394.21ZM124.299 388.449C127.54 387.49 130.815 386.516 134.118 385.529L133.26 382.655C129.959 383.641 126.687 384.614 123.448 385.572L124.299 388.449ZM143.931 382.583C147.181 381.602 150.451 380.61 153.736 379.608L152.861 376.739C149.579 377.739 146.312 378.731 143.064 379.711L143.931 382.583ZM163.531 376.605C166.786 375.601 170.05 374.589 173.316 373.571L172.423 370.707C169.16 371.724 165.899 372.735 162.647 373.738L163.531 376.605ZM183.092 370.505C186.353 369.476 189.611 368.442 192.86 367.404L191.947 364.546C188.701 365.583 185.447 366.616 182.19 367.644L183.092 370.505ZM202.616 364.266C205.881 363.209 209.131 362.149 212.361 361.087L211.424 358.237C208.199 359.297 204.953 360.356 201.692 361.412L202.616 364.266ZM222.092 357.864C225.36 356.773 228.6 355.682 231.806 354.593L230.841 351.752C227.64 352.84 224.405 353.929 221.142 355.019L222.092 357.864ZM241.502 351.266C244.773 350.133 247.999 349.003 251.174 347.878L250.172 345.051C247.004 346.173 243.784 347.301 240.52 348.432L241.502 351.266ZM260.816 344.42C264.098 343.228 267.313 342.043 270.451 340.868L269.399 338.059C266.271 339.23 263.065 340.411 259.791 341.601L260.816 344.42ZM280.06 337.209C283.354 335.931 286.543 334.668 289.615 333.423L288.488 330.643C285.432 331.882 282.257 333.139 278.975 334.412L280.06 337.209ZM299.07 329.486C302.402 328.056 305.551 326.656 308.497 325.29L307.235 322.568C304.319 323.921 301.197 325.309 297.887 326.729L299.07 329.486ZM317.707 320.776C319.317 319.935 320.832 319.11 322.245 318.302L320.755 315.698C319.38 316.485 317.899 317.291 316.318 318.117L317.707 320.776Z" fill="#8D0000"/>
<path d="M482.887 218.21C483.555 217.72 483.7 216.781 483.21 216.113C482.72 215.445 481.781 215.3 481.113 215.79L482.887 218.21ZM342.261 307.655C341.794 308.339 341.971 309.273 342.655 309.739L353.809 317.344C354.494 317.811 355.427 317.635 355.893 316.95C356.36 316.266 356.184 315.332 355.499 314.866L345.584 308.106L352.344 298.191C352.811 297.506 352.635 296.573 351.95 296.107C351.266 295.64 350.332 295.816 349.866 296.501L342.261 307.655ZM348.952 308.145C349.708 307.805 350.044 306.917 349.704 306.162C349.364 305.406 348.476 305.07 347.72 305.41L348.952 308.145ZM356.833 300.667C356.112 301.075 355.859 301.991 356.267 302.712C356.675 303.432 357.591 303.686 358.311 303.277L356.833 300.667ZM367.308 297.959C368.015 297.527 368.238 296.604 367.806 295.897C367.374 295.19 366.451 294.967 365.744 295.399L367.308 297.959ZM374.534 289.908C373.835 290.353 373.629 291.28 374.074 291.979C374.519 292.678 375.446 292.884 376.145 292.439L374.534 289.908ZM384.9 286.786C385.594 286.332 385.788 285.403 385.335 284.709C384.881 284.016 383.952 283.821 383.258 284.275L384.9 286.786ZM391.926 278.548C391.237 279.008 391.051 279.939 391.51 280.628C391.97 281.318 392.901 281.504 393.59 281.044L391.926 278.548ZM402.217 275.246C402.903 274.782 403.083 273.849 402.619 273.163C402.154 272.477 401.222 272.298 400.536 272.762L402.217 275.246ZM409.123 266.911C408.44 267.38 408.266 268.313 408.734 268.997C409.202 269.68 410.136 269.854 410.819 269.386L409.123 266.911ZM419.387 263.483C420.068 263.011 420.238 262.077 419.767 261.396C419.295 260.715 418.361 260.545 417.679 261.017L419.387 263.483ZM426.209 255.083C425.53 255.558 425.364 256.493 425.838 257.172C426.313 257.851 427.248 258.017 427.927 257.543L426.209 255.083ZM436.44 251.57C437.118 251.093 437.28 250.158 436.803 249.48C436.326 248.803 435.39 248.641 434.713 249.118L436.44 251.57ZM443.201 243.117C442.525 243.597 442.366 244.533 442.845 245.209C443.325 245.884 444.261 246.043 444.937 245.564L443.201 243.117ZM453.413 239.529C454.087 239.048 454.243 238.111 453.761 237.437C453.28 236.763 452.343 236.607 451.669 237.088L453.413 239.529ZM460.105 231.04C459.433 231.524 459.28 232.461 459.764 233.134C460.247 233.806 461.185 233.959 461.857 233.476L460.105 231.04ZM470.286 227.391C470.957 226.905 471.107 225.967 470.621 225.297C470.135 224.626 469.197 224.476 468.526 224.962L470.286 227.391ZM476.93 218.851C476.261 219.34 476.114 220.278 476.603 220.947C477.091 221.616 478.03 221.763 478.699 221.274L476.93 218.851ZM343.779 309.974C345.146 309.715 346.909 309.066 348.952 308.145L347.72 305.41C345.73 306.307 344.229 306.835 343.221 307.026L343.779 309.974ZM358.311 303.277C361.052 301.725 364.068 299.939 367.308 297.959L365.744 295.399C362.524 297.367 359.538 299.135 356.833 300.667L358.311 303.277ZM376.145 292.439C378.957 290.649 381.883 288.758 384.9 286.786L383.258 284.275C380.25 286.242 377.334 288.126 374.534 289.908L376.145 292.439ZM393.59 281.044C396.416 279.16 399.298 277.223 402.217 275.246L400.536 272.762C397.621 274.735 394.746 276.668 391.926 278.548L393.59 281.044ZM410.819 269.386C413.66 267.44 416.52 265.468 419.387 263.483L417.679 261.017C414.816 262.999 411.959 264.968 409.123 266.911L410.819 269.386ZM427.927 257.543C430.777 255.551 433.62 253.557 436.44 251.57L434.713 249.118C431.895 251.102 429.056 253.094 426.209 255.083L427.927 257.543ZM444.937 245.564C447.807 243.528 450.638 241.512 453.413 239.529L451.669 237.088C448.896 239.069 446.068 241.083 443.201 243.117L444.937 245.564ZM461.857 233.476C464.76 231.387 467.577 229.354 470.286 227.391L468.526 224.962C465.82 226.922 463.006 228.954 460.105 231.04L461.857 233.476ZM478.699 221.274C480.141 220.221 481.539 219.198 482.887 218.21L481.113 215.79C479.767 216.778 478.371 217.799 476.93 218.851L478.699 221.274Z" fill="#8D0000"/>
<path d="M422.441 98.9176C422.671 98.1219 422.213 97.2899 421.418 97.0593C420.622 96.8287 419.79 97.2867 419.559 98.0824L422.441 98.9176ZM323.503 292.588C323.551 293.415 324.261 294.046 325.088 293.997L338.565 293.205C339.392 293.156 340.023 292.446 339.974 291.619C339.925 290.792 339.216 290.161 338.389 290.21L326.409 290.915L325.705 278.935C325.656 278.108 324.946 277.477 324.119 277.526C323.292 277.575 322.661 278.284 322.71 279.111L323.503 292.588ZM329.19 289.522C329.667 288.844 329.504 287.908 328.826 287.432C328.149 286.955 327.213 287.118 326.737 287.795L329.19 289.522ZM332.08 279.545C331.648 280.252 331.87 281.175 332.577 281.607C333.284 282.04 334.207 281.817 334.639 281.111L332.08 279.545ZM339.664 272.626C340.078 271.908 339.831 270.991 339.114 270.577C338.396 270.163 337.479 270.41 337.065 271.127L339.664 272.626ZM341.901 262.576C341.498 263.3 341.759 264.213 342.483 264.615C343.207 265.018 344.12 264.757 344.523 264.033L341.901 262.576ZM349.278 255.362C349.673 254.634 349.402 253.724 348.674 253.329C347.945 252.934 347.035 253.205 346.641 253.934L349.278 255.362ZM351.302 245.236C350.914 245.968 351.192 246.876 351.924 247.264C352.656 247.653 353.564 247.374 353.952 246.643L351.302 245.236ZM358.539 237.924C358.923 237.19 358.638 236.284 357.904 235.901C357.169 235.517 356.263 235.802 355.88 236.536L358.539 237.924ZM360.41 227.79C360.031 228.526 360.321 229.431 361.058 229.809C361.795 230.188 362.699 229.898 363.078 229.161L360.41 227.79ZM367.569 220.368C367.944 219.629 367.649 218.726 366.91 218.352C366.172 217.977 365.269 218.272 364.894 219.011L367.569 220.368ZM369.332 210.207C368.961 210.948 369.261 211.849 370.001 212.22C370.742 212.592 371.643 212.292 372.014 211.551L369.332 210.207ZM376.415 202.716C376.782 201.973 376.478 201.074 375.736 200.706C374.993 200.339 374.094 200.642 373.726 201.385L376.415 202.716ZM378.076 192.545C377.712 193.289 378.02 194.187 378.764 194.551C379.509 194.915 380.407 194.607 380.771 193.863L378.076 192.545ZM385.086 184.987C385.447 184.241 385.134 183.344 384.388 182.984C383.642 182.623 382.745 182.936 382.385 183.682L385.086 184.987ZM386.652 174.795C386.295 175.543 386.612 176.438 387.36 176.795C388.107 177.152 389.003 176.835 389.359 176.087L386.652 174.795ZM393.586 167.164C393.939 166.415 393.617 165.521 392.868 165.169C392.118 164.816 391.224 165.138 390.872 165.887L393.586 167.164ZM395.04 156.961C394.691 157.713 395.018 158.605 395.77 158.953C396.522 159.301 397.413 158.974 397.762 158.222L395.04 156.961ZM401.875 149.266C402.218 148.512 401.885 147.622 401.131 147.279C400.377 146.936 399.487 147.269 399.144 148.023L401.875 149.266ZM403.192 139.035C402.855 139.792 403.195 140.679 403.952 141.016C404.709 141.353 405.596 141.012 405.933 140.256L403.192 139.035ZM409.915 131.194C410.244 130.434 409.894 129.551 409.134 129.221C408.374 128.892 407.491 129.242 407.162 130.002L409.915 131.194ZM410.992 120.995C410.674 121.759 411.035 122.638 411.8 122.956C412.565 123.275 413.443 122.913 413.762 122.148L410.992 120.995ZM417.495 112.929C417.797 112.158 417.416 111.288 416.645 110.986C415.873 110.684 415.003 111.065 414.701 111.836L417.495 112.929ZM418.102 102.648C417.834 103.432 418.251 104.285 419.035 104.553C419.819 104.821 420.672 104.403 420.94 103.62L418.102 102.648ZM326.121 293.497C327.018 292.488 328.048 291.145 329.19 289.522L326.737 287.795C325.625 289.374 324.669 290.615 323.879 291.503L326.121 293.497ZM334.639 281.111C336.198 278.562 337.88 275.72 339.664 272.626L337.065 271.127C335.291 274.204 333.623 277.023 332.08 279.545L334.639 281.111ZM344.523 264.033C346.058 261.273 347.646 258.376 349.278 255.362L346.641 253.934C345.013 256.938 343.43 259.825 341.901 262.576L344.523 264.033ZM353.952 246.643C355.456 243.808 356.988 240.898 358.539 237.924L355.88 236.536C354.331 239.504 352.803 242.409 351.302 245.236L353.952 246.643ZM363.078 229.161C364.565 226.271 366.063 223.336 367.569 220.368L364.894 219.011C363.391 221.974 361.894 224.904 360.41 227.79L363.078 229.161ZM372.014 211.551C373.481 208.624 374.95 205.675 376.415 202.716L373.726 201.385C372.263 204.34 370.797 207.284 369.332 210.207L372.014 211.551ZM380.771 193.863C382.219 190.902 383.66 187.94 385.086 184.987L382.385 183.682C380.96 186.63 379.522 189.588 378.076 192.545L380.771 193.863ZM389.359 176.087C390.789 173.089 392.2 170.111 393.586 167.164L390.872 165.887C389.488 168.829 388.079 171.802 386.652 174.795L389.359 176.087ZM397.762 158.222C399.169 155.185 400.542 152.195 401.875 149.266L399.144 148.023C397.814 150.946 396.444 153.93 395.04 156.961L397.762 158.222ZM405.933 140.256C407.321 137.138 408.651 134.111 409.915 131.194L407.162 130.002C405.903 132.909 404.577 135.926 403.192 139.035L405.933 140.256ZM413.762 122.148C415.127 118.87 416.377 115.786 417.495 112.929L414.701 111.836C413.593 114.669 412.351 117.733 410.992 120.995L413.762 122.148ZM420.94 103.62C421.53 101.898 422.033 100.325 422.441 98.9176L419.559 98.0824C419.168 99.4326 418.68 100.959 418.102 102.648L420.94 103.62Z" fill="#8D0000"/>
<path d="M15.1295 405.195V402.5C17.6685 402.253 19.4394 401.842 20.442 401.27C21.4446 400.684 22.1933 399.31 22.6881 397.148H25.4615V425H21.7115V405.195H15.1295Z" fill="#8D0000"/>
<path d="M483.077 374.346C484.561 374.346 486 374.697 487.393 375.4C488.786 376.09 489.848 376.989 490.577 378.096C491.28 379.15 491.749 380.381 491.983 381.787C492.191 382.751 492.295 384.287 492.295 386.396H476.963C477.029 388.519 477.53 390.225 478.467 391.514C479.405 392.79 480.857 393.428 482.823 393.428C484.659 393.428 486.124 392.822 487.217 391.611C487.842 390.908 488.285 390.094 488.545 389.17H492.003C491.911 389.938 491.605 390.798 491.085 391.748C490.577 392.686 490.004 393.454 489.366 394.053C488.298 395.094 486.976 395.798 485.401 396.162C484.555 396.37 483.598 396.475 482.53 396.475C479.926 396.475 477.719 395.531 475.909 393.643C474.099 391.742 473.194 389.085 473.194 385.674C473.194 382.314 474.105 379.587 475.928 377.49C477.751 375.394 480.134 374.346 483.077 374.346ZM488.682 383.604C488.539 382.08 488.207 380.863 487.686 379.951C486.723 378.258 485.115 377.412 482.862 377.412C481.247 377.412 479.893 377.998 478.799 379.17C477.706 380.329 477.126 381.807 477.061 383.604H488.682Z" fill="#8D0000"/>
<path d="M387.468 350.837C387.468 353.076 387.943 354.951 388.894 356.462C389.844 357.972 391.368 358.728 393.464 358.728C395.092 358.728 396.427 358.031 397.468 356.638C398.523 355.231 399.05 353.22 399.05 350.603C399.05 347.959 398.51 346.006 397.429 344.743C396.348 343.467 395.014 342.829 393.425 342.829C391.654 342.829 390.216 343.506 389.109 344.86C388.015 346.215 387.468 348.207 387.468 350.837ZM392.761 339.763C394.363 339.763 395.704 340.101 396.785 340.778C397.41 341.169 398.119 341.853 398.913 342.829V332.263H402.292V361.052H399.128V358.142C398.308 359.431 397.338 360.362 396.218 360.935C395.098 361.507 393.816 361.794 392.371 361.794C390.04 361.794 388.022 360.817 386.316 358.864C384.61 356.898 383.757 354.287 383.757 351.032C383.757 347.985 384.532 345.349 386.081 343.122C387.644 340.882 389.871 339.763 392.761 339.763Z" fill="#8D0000"/>
<path d="M302.573 326.523C304.93 326.523 306.844 327.096 308.315 328.242C309.799 329.388 310.691 331.36 310.991 334.16H307.573C307.365 332.871 306.889 331.803 306.147 330.957C305.405 330.097 304.213 329.667 302.573 329.667C300.333 329.667 298.732 330.761 297.768 332.949C297.143 334.368 296.831 336.119 296.831 338.203C296.831 340.299 297.273 342.063 298.159 343.496C299.044 344.928 300.437 345.644 302.338 345.644C303.797 345.644 304.949 345.201 305.795 344.316C306.655 343.417 307.247 342.194 307.573 340.644H310.991C310.6 343.417 309.624 345.449 308.061 346.738C306.499 348.014 304.5 348.652 302.065 348.652C299.331 348.652 297.15 347.656 295.522 345.664C293.894 343.658 293.081 341.158 293.081 338.164C293.081 334.492 293.973 331.634 295.756 329.589C297.54 327.545 299.812 326.523 302.573 326.523Z" fill="#8D0000"/>
<path d="M209.649 335.513H213.067V345.923C213.835 344.92 214.753 344.159 215.821 343.638C216.889 343.104 218.047 342.837 219.297 342.837C221.902 342.837 224.011 343.735 225.626 345.532C227.253 347.316 228.067 349.953 228.067 353.442C228.067 356.75 227.266 359.497 225.665 361.685C224.063 363.872 221.843 364.966 219.004 364.966C217.416 364.966 216.075 364.582 214.981 363.813C214.33 363.358 213.633 362.629 212.891 361.626V364.302H209.649V335.513ZM218.79 361.86C220.691 361.86 222.11 361.105 223.047 359.595C223.998 358.084 224.473 356.092 224.473 353.618C224.473 351.418 223.998 349.595 223.047 348.149C222.11 346.704 220.723 345.981 218.887 345.981C217.286 345.981 215.879 346.574 214.669 347.759C213.471 348.944 212.872 350.897 212.872 353.618C212.872 355.584 213.119 357.179 213.614 358.403C214.538 360.708 216.264 361.86 218.79 361.86Z" fill="#8D0000"/>
<path d="M112.114 547.173C112.114 548.188 112.485 548.989 113.227 549.575C113.969 550.161 114.848 550.454 115.864 550.454C117.101 550.454 118.299 550.168 119.458 549.595C121.411 548.644 122.387 547.088 122.387 544.927V542.095C121.958 542.368 121.404 542.596 120.727 542.778C120.05 542.961 119.386 543.091 118.735 543.169L116.606 543.442C115.33 543.612 114.373 543.879 113.735 544.243C112.654 544.855 112.114 545.832 112.114 547.173ZM120.629 540.063C121.437 539.959 121.977 539.621 122.251 539.048C122.407 538.735 122.485 538.286 122.485 537.7C122.485 536.502 122.055 535.636 121.196 535.103C120.35 534.556 119.132 534.282 117.544 534.282C115.708 534.282 114.406 534.777 113.637 535.767C113.208 536.313 112.928 537.127 112.797 538.208H109.516C109.581 535.63 110.415 533.84 112.016 532.837C113.631 531.821 115.499 531.313 117.622 531.313C120.083 531.313 122.081 531.782 123.618 532.72C125.141 533.657 125.903 535.116 125.903 537.095V549.146C125.903 549.51 125.975 549.803 126.118 550.024C126.274 550.246 126.593 550.356 127.075 550.356C127.231 550.356 127.407 550.35 127.602 550.337C127.797 550.311 128.006 550.278 128.227 550.239V552.837C127.68 552.993 127.264 553.091 126.977 553.13C126.691 553.169 126.3 553.188 125.805 553.188C124.594 553.188 123.715 552.759 123.169 551.899C122.882 551.444 122.68 550.799 122.563 549.966C121.847 550.903 120.818 551.717 119.477 552.407C118.136 553.097 116.658 553.442 115.044 553.442C113.103 553.442 111.515 552.856 110.278 551.685C109.054 550.5 108.442 549.022 108.442 547.251C108.442 545.311 109.047 543.807 110.258 542.739C111.469 541.672 113.058 541.014 115.024 540.767L120.629 540.063Z" fill="#8D0000"/>
<path d="M322.023 738.035C322.075 736.577 322.329 735.509 322.785 734.832C323.605 733.634 325.187 733.035 327.531 733.035C327.752 733.035 327.98 733.042 328.214 733.055C328.449 733.068 328.716 733.087 329.015 733.113V736.316C328.65 736.29 328.384 736.277 328.214 736.277C328.058 736.264 327.908 736.258 327.765 736.258C326.697 736.258 326.059 736.538 325.851 737.098C325.643 737.645 325.538 739.051 325.538 741.316H329.015V744.09H325.499V762.137H322.023V744.09H319.113V741.316H322.023V738.035Z" fill="#8D0000"/>
<path d="M185.835 66.2627C185.965 63.8538 186.46 61.7575 187.319 59.9736C188.191 58.1898 189.884 56.5687 192.397 55.1104L196.147 52.9424C197.827 51.9658 199.005 51.1325 199.682 50.4424C200.75 49.3617 201.284 48.1247 201.284 46.7314C201.284 45.1038 200.795 43.8148 199.819 42.8643C198.842 41.9007 197.54 41.4189 195.913 41.4189C193.504 41.4189 191.837 42.3304 190.913 44.1533C190.418 45.1299 190.144 46.484 190.092 48.2158H186.518C186.557 45.7809 187.006 43.7952 187.866 42.2588C189.389 39.5505 192.078 38.1963 195.932 38.1963C199.135 38.1963 201.473 39.0622 202.944 40.7939C204.428 42.5257 205.17 44.4528 205.17 46.5752C205.17 48.8148 204.383 50.7288 202.807 52.3174C201.896 53.2419 200.262 54.3617 197.905 55.6768L195.229 57.1611C193.953 57.8643 192.95 58.5348 192.221 59.1729C190.919 60.3057 190.099 61.5622 189.76 62.9424H205.034V66.2627H185.835Z" fill="#8D0000"/>
<path d="M499.489 194.606C499.723 196.612 500.654 197.998 502.282 198.767C503.115 199.157 504.079 199.353 505.172 199.353C507.256 199.353 508.799 198.688 509.801 197.36C510.804 196.032 511.305 194.561 511.305 192.946C511.305 190.993 510.706 189.483 509.508 188.415C508.323 187.347 506.898 186.813 505.231 186.813C504.02 186.813 502.978 187.048 502.106 187.517C501.247 187.985 500.511 188.636 499.899 189.47L496.852 189.294L498.981 174.235H513.512V177.634H501.618L500.426 185.407C501.077 184.912 501.696 184.541 502.282 184.294C503.323 183.864 504.528 183.649 505.895 183.649C508.46 183.649 510.635 184.476 512.419 186.13C514.202 187.784 515.094 189.88 515.094 192.419C515.094 195.062 514.274 197.393 512.633 199.411C511.006 201.429 508.402 202.438 504.821 202.438C502.542 202.438 500.524 201.8 498.766 200.524C497.021 199.235 496.045 197.263 495.837 194.606H499.489Z" fill="#8D0000"/>
<path d="M430.821 68.2817V55.606L421.856 68.2817H430.821ZM430.879 78.1841V71.3481H418.614V67.9106L431.426 50.1372H434.395V68.2817H438.516V71.3481H434.395V78.1841H430.879Z" fill="#8D0000"/>
<path d="M320.694 37.7617C317.387 37.7617 314.984 36.8568 313.487 35.0469C312.003 33.224 311.26 31.0104 311.26 28.4062H314.932C315.088 30.2161 315.427 31.5312 315.948 32.3516C316.859 33.8229 318.506 34.5586 320.889 34.5586C322.738 34.5586 324.223 34.0638 325.342 33.0742C326.462 32.0846 327.022 30.8086 327.022 29.2461C327.022 27.319 326.43 25.9714 325.245 25.2031C324.073 24.4349 322.439 24.0508 320.342 24.0508C320.108 24.0508 319.867 24.0573 319.62 24.0703C319.385 24.0703 319.144 24.0768 318.897 24.0898V20.9844C319.262 21.0234 319.568 21.0495 319.815 21.0625C320.062 21.0755 320.329 21.082 320.616 21.082C321.931 21.082 323.012 20.8737 323.858 20.457C325.342 19.7279 326.085 18.4258 326.085 16.5508C326.085 15.1576 325.59 14.0833 324.6 13.3281C323.611 12.5729 322.458 12.1953 321.143 12.1953C318.799 12.1953 317.178 12.9766 316.28 14.5391C315.785 15.3984 315.505 16.6224 315.44 18.2109H311.963C311.963 16.1276 312.38 14.3568 313.213 12.8984C314.646 10.2943 317.165 8.99219 320.772 8.99219C323.624 8.99219 325.831 9.63021 327.393 10.9062C328.956 12.1693 329.737 14.0052 329.737 16.4141C329.737 18.1328 329.275 19.526 328.35 20.5938C327.777 21.2578 327.035 21.7786 326.124 22.1562C327.595 22.5599 328.741 23.3411 329.561 24.5C330.394 25.6458 330.811 27.0521 330.811 28.7188C330.811 31.388 329.932 33.5625 328.174 35.2422C326.417 36.9219 323.923 37.7617 320.694 37.7617Z" fill="#8D0000"/>
<path d="M203.5 79C203.5 78.1716 202.828 77.5 202 77.5C201.172 77.5 200.5 78.1716 200.5 79L203.5 79ZM289.438 297.499C290.265 297.533 290.964 296.89 290.999 296.062L291.561 282.574C291.595 281.746 290.952 281.048 290.125 281.013C289.297 280.979 288.598 281.622 288.563 282.449L288.064 294.439L276.074 293.939C275.246 293.905 274.548 294.548 274.513 295.375C274.479 296.203 275.122 296.902 275.949 296.937L289.438 297.499ZM200.812 83.9916C200.904 84.8149 201.646 85.408 202.469 85.3162C203.292 85.2245 203.885 84.4826 203.794 83.6593L200.812 83.9916ZM205.396 93.1942C205.226 92.3835 204.43 91.8645 203.619 92.035C202.809 92.2055 202.29 93.001 202.46 93.8117L205.396 93.1942ZM204.75 103.466C204.959 104.268 205.778 104.749 206.579 104.541C207.381 104.332 207.862 103.514 207.654 102.712L204.75 103.466ZM210.247 112.09C210.016 111.294 209.183 110.837 208.388 111.069C207.592 111.301 207.135 112.133 207.367 112.929L210.247 112.09ZM210.226 122.353C210.474 123.143 211.316 123.583 212.106 123.334C212.897 123.086 213.336 122.244 213.088 121.454L210.226 122.353ZM216.11 130.79C215.848 130.004 214.999 129.579 214.213 129.84C213.427 130.101 213.001 130.951 213.263 131.737L216.11 130.79ZM216.43 141.05C216.701 141.832 217.556 142.247 218.339 141.975C219.121 141.703 219.535 140.848 219.263 140.066L216.43 141.05ZM222.527 149.289C222.246 148.509 221.387 148.105 220.608 148.386C219.828 148.666 219.424 149.526 219.705 150.305L222.527 149.289ZM223.081 159.531C223.37 160.307 224.233 160.703 225.01 160.414C225.786 160.125 226.182 159.262 225.893 158.485L223.081 159.531ZM229.35 167.654C229.054 166.88 228.187 166.493 227.413 166.789C226.639 167.084 226.252 167.951 226.547 168.725L229.35 167.654ZM230.096 177.889C230.399 178.661 231.269 179.041 232.04 178.738C232.811 178.436 233.191 177.565 232.889 176.794L230.096 177.889ZM236.506 185.905C236.197 185.136 235.323 184.763 234.555 185.072C233.786 185.381 233.413 186.255 233.722 187.023L236.506 185.905ZM237.423 196.127C237.738 196.893 238.615 197.259 239.381 196.944C240.147 196.629 240.513 195.752 240.198 194.986L237.423 196.127ZM243.963 204.037C243.642 203.274 242.762 202.915 241.999 203.236C241.235 203.558 240.877 204.437 241.198 205.201L243.963 204.037ZM245.048 214.243C245.376 215.004 246.258 215.355 247.019 215.027C247.78 214.7 248.131 213.817 247.803 213.056L245.048 214.243ZM251.72 222.04C251.385 221.283 250.5 220.939 249.742 221.274C248.984 221.608 248.641 222.494 248.975 223.252L251.72 222.04ZM252.984 232.222C253.326 232.977 254.215 233.312 254.969 232.97C255.724 232.628 256.059 231.74 255.717 230.985L252.984 232.222ZM259.801 239.881C259.451 239.13 258.559 238.805 257.808 239.154C257.057 239.504 256.732 240.396 257.081 241.147L259.801 239.881ZM261.275 250.016C261.634 250.762 262.53 251.077 263.277 250.718C264.023 250.359 264.338 249.463 263.979 248.716L261.275 250.016ZM268.298 257.539C267.928 256.798 267.027 256.497 266.286 256.867C265.544 257.237 265.243 258.138 265.613 258.879L268.298 257.539ZM270.094 267.659C270.478 268.393 271.385 268.677 272.119 268.293C272.853 267.909 273.137 267.003 272.753 266.269L270.094 267.659ZM277.36 274.821C276.957 274.098 276.043 273.837 275.32 274.24C274.596 274.643 274.336 275.557 274.739 276.281L277.36 274.821ZM279.738 284.871C280.171 285.577 281.095 285.799 281.801 285.366C282.507 284.932 282.729 284.009 282.295 283.303L279.738 284.871ZM287.657 291.363C287.164 290.697 286.224 290.558 285.559 291.051C284.893 291.544 284.753 292.483 285.247 293.149L287.657 291.363ZM200.5 79C200.5 80.4897 200.608 82.161 200.812 83.9916L203.794 83.6593C203.598 81.9072 203.5 80.3507 203.5 79L200.5 79ZM202.46 93.8117C203.088 96.7959 203.856 100.026 204.75 103.466L207.654 102.712C206.769 99.3074 206.012 96.124 205.396 93.1942L202.46 93.8117ZM207.367 112.929C208.25 115.958 209.205 119.105 210.226 122.353L213.088 121.454C212.072 118.224 211.123 115.097 210.247 112.09L207.367 112.929ZM213.263 131.737C214.274 134.778 215.331 137.887 216.43 141.05L219.263 140.066C218.169 136.914 217.116 133.818 216.11 130.79L213.263 131.737ZM219.705 150.305C220.8 153.346 221.927 156.424 223.081 159.531L225.893 158.485C224.742 155.388 223.619 152.319 222.527 149.289L219.705 150.305ZM226.547 168.725C227.71 171.766 228.894 174.824 230.096 177.889L232.889 176.794C231.69 173.736 230.509 170.687 229.35 167.654L226.547 168.725ZM233.722 187.023C234.943 190.062 236.178 193.099 237.423 196.127L240.198 194.986C238.955 191.966 237.724 188.936 236.506 185.905L233.722 187.023ZM241.198 205.201C242.476 208.236 243.76 211.253 245.048 214.243L247.803 213.056C246.519 210.074 245.237 207.065 243.963 204.037L241.198 205.201ZM248.975 223.252C250.314 226.284 251.651 229.278 252.984 232.222L255.717 230.985C254.388 228.049 253.054 225.065 251.72 222.04L248.975 223.252ZM257.081 241.147C258.491 244.175 259.891 247.135 261.275 250.016L263.979 248.716C262.6 245.847 261.206 242.898 259.801 239.881L257.081 241.147ZM265.613 258.879C267.136 261.93 268.632 264.862 270.094 267.659L272.753 266.269C271.3 263.491 269.812 260.575 268.298 257.539L265.613 258.879ZM274.739 276.281C276.474 279.398 278.145 282.274 279.738 284.871L282.295 283.303C280.729 280.748 279.079 277.91 277.36 274.821L274.739 276.281ZM285.247 293.149C286.35 294.638 287.402 295.936 288.396 297.016L290.604 294.984C289.701 294.003 288.717 292.793 287.657 291.363L285.247 293.149Z" fill="#8D0000"/>
<path d="M322.441 55.4176C322.672 54.6219 322.213 53.7899 321.418 53.5593C320.622 53.3287 319.79 53.7867 319.559 54.5824L322.441 55.4176ZM306.439 285.561C307.025 286.146 307.975 286.146 308.561 285.561L318.107 276.015C318.692 275.429 318.692 274.479 318.107 273.893C317.521 273.308 316.571 273.308 315.985 273.893L307.5 282.379L299.015 273.893C298.429 273.308 297.479 273.308 296.893 273.893C296.308 274.479 296.308 275.429 296.893 276.015L306.439 285.561ZM309.027 279.813C309.035 278.984 308.37 278.306 307.541 278.298C306.713 278.291 306.035 278.956 306.027 279.784L309.027 279.813ZM306.154 270.145C306.141 270.974 306.801 271.656 307.63 271.669C308.458 271.682 309.14 271.021 309.153 270.193L306.154 270.145ZM309.324 260.63C309.34 259.802 308.682 259.117 307.853 259.101C307.025 259.085 306.341 259.743 306.324 260.571L309.324 260.63ZM306.527 250.92C306.508 251.748 307.165 252.434 307.993 252.453C308.821 252.471 309.507 251.815 309.526 250.987L306.527 250.92ZM309.751 241.433C309.772 240.604 309.117 239.916 308.289 239.896C307.461 239.875 306.773 240.53 306.752 241.358L309.751 241.433ZM307.001 231.773C306.978 232.602 307.631 233.291 308.46 233.314C309.288 233.336 309.977 232.683 310 231.855L307.001 231.773ZM310.271 222.263C310.295 221.435 309.644 220.744 308.815 220.719C307.987 220.695 307.296 221.346 307.272 222.174L310.271 222.263ZM307.566 212.574C307.539 213.402 308.189 214.095 309.017 214.121C309.845 214.147 310.538 213.497 310.564 212.669L307.566 212.574ZM310.88 203.079C310.908 202.251 310.26 201.557 309.432 201.529C308.604 201.5 307.91 202.149 307.882 202.977L310.88 203.079ZM308.221 193.383C308.191 194.211 308.837 194.906 309.665 194.937C310.493 194.967 311.189 194.321 311.219 193.493L308.221 193.383ZM311.583 183.91C311.616 183.082 310.971 182.385 310.144 182.352C309.316 182.32 308.618 182.964 308.586 183.792L311.583 183.91ZM308.977 174.203C308.942 175.031 309.585 175.73 310.412 175.765C311.24 175.8 311.939 175.158 311.974 174.33L308.977 174.203ZM312.394 164.753C312.432 163.926 311.791 163.224 310.964 163.187C310.136 163.149 309.435 163.789 309.397 164.617L312.394 164.753ZM309.849 155.032C309.809 155.86 310.447 156.563 311.274 156.604C312.101 156.644 312.805 156.006 312.846 155.179L309.849 155.032ZM313.333 145.608C313.376 144.78 312.741 144.074 311.914 144.03C311.087 143.987 310.381 144.622 310.337 145.449L313.333 145.608ZM310.865 135.863C310.818 136.69 311.45 137.399 312.277 137.447C313.104 137.494 313.813 136.862 313.86 136.035L310.865 135.863ZM314.435 126.462C314.486 125.636 313.858 124.923 313.031 124.872C312.205 124.82 311.492 125.448 311.44 126.275L314.435 126.462ZM312.071 116.684C312.014 117.511 312.638 118.227 313.464 118.284C314.291 118.341 315.007 117.717 315.064 116.89L312.071 116.684ZM315.759 107.323C315.822 106.497 315.204 105.776 314.378 105.712C313.552 105.649 312.831 106.267 312.768 107.093L315.759 107.323ZM313.547 97.5114C313.476 98.3368 314.087 99.0637 314.912 99.135C315.737 99.2063 316.464 98.595 316.536 97.7696L313.547 97.5114ZM317.416 88.2584C317.498 87.434 316.896 86.6993 316.071 86.6174C315.247 86.5355 314.512 87.1374 314.43 87.9618L317.416 88.2584ZM315.465 78.3825C315.368 79.2052 315.957 79.9509 316.779 80.048C317.602 80.1452 318.348 79.557 318.445 78.7342L315.465 78.3825ZM319.692 69.276C319.813 68.4565 319.248 67.6936 318.428 67.5719C317.609 67.4502 316.846 68.0158 316.724 68.8353L319.692 69.276ZM318.403 59.2815C318.23 60.0917 318.747 60.8884 319.558 61.061C320.368 61.2335 321.165 60.7165 321.337 59.9063L318.403 59.2815ZM309 284.5C309 283.299 309.009 281.725 309.027 279.813L306.027 279.784C306.009 281.702 306 283.286 306 284.5H309ZM309.153 270.193C309.199 267.305 309.256 264.103 309.324 260.63L306.324 260.571C306.257 264.048 306.2 267.253 306.154 270.145L309.153 270.193ZM309.526 250.987C309.594 247.939 309.669 244.747 309.751 241.433L306.752 241.358C306.67 244.676 306.595 247.869 306.527 250.92L309.526 250.987ZM310 231.855C310.084 228.735 310.175 225.534 310.271 222.263L307.272 222.174C307.176 225.448 307.085 228.652 307.001 231.773L310 231.855ZM310.564 212.669C310.664 209.517 310.769 206.317 310.88 203.079L307.882 202.977C307.771 206.217 307.666 209.42 307.566 212.574L310.564 212.669ZM311.219 193.493C311.336 190.32 311.457 187.123 311.583 183.91L308.586 183.792C308.459 187.008 308.338 190.208 308.221 193.383L311.219 193.493ZM311.974 174.33C312.109 171.141 312.249 167.945 312.394 164.753L309.397 164.617C309.252 167.812 309.112 171.011 308.977 174.203L311.974 174.33ZM312.846 155.179C313.002 151.973 313.165 148.779 313.333 145.608L310.337 145.449C310.169 148.625 310.006 151.822 309.849 155.032L312.846 155.179ZM313.86 136.035C314.046 132.806 314.237 129.612 314.435 126.462L311.44 126.275C311.243 129.43 311.051 132.63 310.865 135.863L313.86 136.035ZM315.064 116.89C315.288 113.633 315.52 110.44 315.759 107.323L312.768 107.093C312.528 110.219 312.296 113.42 312.071 116.684L315.064 116.89ZM316.536 97.7696C316.82 94.4803 317.113 91.3039 317.416 88.2584L314.43 87.9618C314.126 91.0216 313.832 94.2108 313.547 97.5114L316.536 97.7696ZM318.445 78.7342C318.846 75.3357 319.262 72.1717 319.692 69.276L316.724 68.8353C316.289 71.7664 315.869 74.9606 315.465 78.3825L318.445 78.7342ZM321.337 59.9063C321.699 58.2071 322.067 56.707 322.441 55.4176L319.559 54.5824C319.16 55.959 318.775 57.5323 318.403 59.2815L321.337 59.9063Z" fill="#8D0000"/>
<path d="M49.6092 406.552C48.8094 406.768 48.336 407.591 48.5518 408.391C48.7676 409.191 49.591 409.664 50.3908 409.448L49.6092 406.552ZM322.947 317.394C323.165 316.595 322.694 315.77 321.894 315.553L308.869 312.005C308.069 311.787 307.245 312.259 307.027 313.058C306.81 313.857 307.281 314.682 308.08 314.899L319.659 318.053L316.505 329.631C316.287 330.431 316.759 331.255 317.558 331.473C318.357 331.69 319.182 331.219 319.399 330.42L322.947 317.394ZM55.288 408.12C56.0873 407.902 56.5587 407.078 56.3409 406.279C56.1232 405.479 55.2987 405.008 54.4994 405.226L55.288 408.12ZM64.384 402.51C63.5856 402.731 63.1176 403.558 63.3386 404.356C63.5596 405.154 64.3861 405.622 65.1845 405.401L64.384 402.51ZM75.0341 402.656C75.8317 402.432 76.2969 401.604 76.0732 400.806C75.8494 400.009 75.0214 399.544 74.2238 399.767L75.0341 402.656ZM84.0847 396.984C83.2877 397.211 82.8251 398.04 83.0513 398.837C83.2775 399.634 84.107 400.097 84.9039 399.87L84.0847 396.984ZM94.7718 397.054C95.5681 396.825 96.0283 395.994 95.7998 395.198C95.5713 394.402 94.7405 393.942 93.9442 394.17L94.7718 397.054ZM103.794 391.329C102.998 391.559 102.54 392.391 102.771 393.187C103.001 393.983 103.833 394.441 104.629 394.21L103.794 391.329ZM114.473 391.341C115.268 391.108 115.724 390.275 115.491 389.48C115.258 388.685 114.425 388.229 113.63 388.462L114.473 391.341ZM123.448 385.572C122.654 385.807 122.2 386.641 122.435 387.436C122.67 388.23 123.505 388.684 124.299 388.449L123.448 385.572ZM134.118 385.529C134.912 385.292 135.363 384.457 135.126 383.663C134.889 382.869 134.053 382.418 133.26 382.655L134.118 385.529ZM143.064 379.711C142.271 379.95 141.822 380.787 142.062 381.58C142.301 382.373 143.138 382.822 143.931 382.583L143.064 379.711ZM153.736 379.608C154.528 379.366 154.975 378.528 154.733 377.736C154.491 376.943 153.653 376.497 152.861 376.739L153.736 379.608ZM162.647 373.738C161.855 373.982 161.411 374.821 161.655 375.613C161.899 376.405 162.739 376.849 163.531 376.605L162.647 373.738ZM173.316 373.571C174.107 373.324 174.548 372.483 174.301 371.693C174.055 370.902 173.214 370.46 172.423 370.707L173.316 373.571ZM182.19 367.644C181.4 367.893 180.961 368.736 181.211 369.526C181.46 370.316 182.302 370.754 183.092 370.505L182.19 367.644ZM192.86 367.404C193.649 367.152 194.084 366.308 193.832 365.519C193.58 364.73 192.736 364.294 191.947 364.546L192.86 367.404ZM201.692 361.412C200.904 361.667 200.472 362.513 200.727 363.301C200.982 364.089 201.828 364.521 202.616 364.266L201.692 361.412ZM212.361 361.087C213.148 360.829 213.576 359.981 213.318 359.194C213.059 358.407 212.211 357.979 211.424 358.237L212.361 361.087ZM221.142 355.019C220.356 355.281 219.932 356.131 220.194 356.917C220.456 357.703 221.306 358.127 222.092 357.864L221.142 355.019ZM231.806 354.593C232.591 354.326 233.011 353.474 232.744 352.69C232.478 351.906 231.626 351.486 230.841 351.752L231.806 354.593ZM240.52 348.432C239.737 348.703 239.322 349.557 239.594 350.34C239.865 351.123 240.719 351.538 241.502 351.266L240.52 348.432ZM251.174 347.878C251.955 347.602 252.364 346.745 252.087 345.964C251.81 345.183 250.953 344.774 250.172 345.051L251.174 347.878ZM259.791 341.601C259.013 341.883 258.611 342.744 258.894 343.523C259.177 344.301 260.037 344.703 260.816 344.42L259.791 341.601ZM270.451 340.868C271.227 340.578 271.62 339.714 271.33 338.938C271.039 338.162 270.175 337.768 269.399 338.059L270.451 340.868ZM278.975 334.412C278.203 334.712 277.819 335.581 278.119 336.353C278.419 337.125 279.288 337.509 280.06 337.209L278.975 334.412ZM289.615 333.423C290.382 333.112 290.752 332.238 290.441 331.47C290.13 330.702 289.255 330.332 288.488 330.643L289.615 333.423ZM297.887 326.729C297.126 327.055 296.773 327.937 297.1 328.698C297.427 329.46 298.309 329.812 299.07 329.486L297.887 326.729ZM308.497 325.29C309.249 324.941 309.575 324.049 309.227 323.298C308.878 322.546 307.986 322.22 307.235 322.568L308.497 325.29ZM316.318 318.117C315.584 318.501 315.3 319.407 315.683 320.141C316.067 320.875 316.973 321.16 317.707 320.776L316.318 318.117ZM50.3908 409.448C51.9727 409.021 53.606 408.578 55.288 408.12L54.4994 405.226C52.8197 405.683 51.1887 406.126 49.6092 406.552L50.3908 409.448ZM65.1845 405.401C68.3453 404.526 71.633 403.61 75.0341 402.656L74.2238 399.767C70.8259 400.721 67.5415 401.636 64.384 402.51L65.1845 405.401ZM84.9039 399.87C88.1162 398.958 91.4086 398.019 94.7718 397.054L93.9442 394.17C90.5839 395.134 87.2942 396.073 84.0847 396.984L84.9039 399.87ZM104.629 394.21C107.86 393.273 111.144 392.316 114.473 391.341L113.63 388.462C110.303 389.436 107.022 390.393 103.794 391.329L104.629 394.21ZM124.299 388.449C127.54 387.49 130.815 386.516 134.118 385.529L133.26 382.655C129.959 383.641 126.687 384.614 123.448 385.572L124.299 388.449ZM143.931 382.583C147.181 381.602 150.451 380.61 153.736 379.608L152.861 376.739C149.579 377.739 146.312 378.731 143.064 379.711L143.931 382.583ZM163.531 376.605C166.786 375.601 170.05 374.589 173.316 373.571L172.423 370.707C169.16 371.724 165.899 372.735 162.647 373.738L163.531 376.605ZM183.092 370.505C186.353 369.476 189.611 368.442 192.86 367.404L191.947 364.546C188.701 365.583 185.447 366.616 182.19 367.644L183.092 370.505ZM202.616 364.266C205.881 363.209 209.131 362.149 212.361 361.087L211.424 358.237C208.199 359.297 204.953 360.356 201.692 361.412L202.616 364.266ZM222.092 357.864C225.36 356.773 228.6 355.682 231.806 354.593L230.841 351.752C227.64 352.84 224.405 353.929 221.142 355.019L222.092 357.864ZM241.502 351.266C244.773 350.133 247.999 349.003 251.174 347.878L250.172 345.051C247.004 346.173 243.784 347.301 240.52 348.432L241.502 351.266ZM260.816 344.42C264.098 343.228 267.313 342.043 270.451 340.868L269.399 338.059C266.271 339.23 263.065 340.411 259.791 341.601L260.816 344.42ZM280.06 337.209C283.354 335.931 286.543 334.668 289.615 333.423L288.488 330.643C285.432 331.882 282.257 333.139 278.975 334.412L280.06 337.209ZM299.07 329.486C302.402 328.056 305.551 326.656 308.497 325.29L307.235 322.568C304.319 323.921 301.197 325.309 297.887 326.729L299.07 329.486ZM317.707 320.776C319.317 319.935 320.832 319.11 322.245 318.302L320.755 315.698C319.38 316.485 317.899 317.291 316.318 318.117L317.707 320.776Z" fill="#8D0000"/>
<path d="M482.887 218.21C483.555 217.72 483.7 216.781 483.21 216.113C482.72 215.445 481.781 215.3 481.113 215.79L482.887 218.21ZM342.261 307.655C341.794 308.339 341.971 309.273 342.655 309.739L353.809 317.344C354.494 317.811 355.427 317.635 355.893 316.95C356.36 316.266 356.184 315.332 355.499 314.866L345.584 308.106L352.344 298.191C352.811 297.506 352.635 296.573 351.95 296.107C351.266 295.64 350.332 295.816 349.866 296.501L342.261 307.655ZM348.952 308.145C349.708 307.805 350.044 306.917 349.704 306.162C349.364 305.406 348.476 305.07 347.72 305.41L348.952 308.145ZM356.833 300.667C356.112 301.075 355.859 301.991 356.267 302.712C356.675 303.432 357.591 303.686 358.311 303.277L356.833 300.667ZM367.308 297.959C368.015 297.527 368.238 296.604 367.806 295.897C367.374 295.19 366.451 294.967 365.744 295.399L367.308 297.959ZM374.534 289.908C373.835 290.353 373.629 291.28 374.074 291.979C374.519 292.678 375.446 292.884 376.145 292.439L374.534 289.908ZM384.9 286.786C385.594 286.332 385.788 285.403 385.335 284.709C384.881 284.016 383.952 283.821 383.258 284.275L384.9 286.786ZM391.926 278.548C391.237 279.008 391.051 279.939 391.51 280.628C391.97 281.318 392.901 281.504 393.59 281.044L391.926 278.548ZM402.217 275.246C402.903 274.782 403.083 273.849 402.619 273.163C402.154 272.477 401.222 272.298 400.536 272.762L402.217 275.246ZM409.123 266.911C408.44 267.38 408.266 268.313 408.734 268.997C409.202 269.68 410.136 269.854 410.819 269.386L409.123 266.911ZM419.387 263.483C420.068 263.011 420.238 262.077 419.767 261.396C419.295 260.715 418.361 260.545 417.679 261.017L419.387 263.483ZM426.209 255.083C425.53 255.558 425.364 256.493 425.838 257.172C426.313 257.851 427.248 258.017 427.927 257.543L426.209 255.083ZM436.44 251.57C437.118 251.093 437.28 250.158 436.803 249.48C436.326 248.803 435.39 248.641 434.713 249.118L436.44 251.57ZM443.201 243.117C442.525 243.597 442.366 244.533 442.845 245.209C443.325 245.884 444.261 246.043 444.937 245.564L443.201 243.117ZM453.413 239.529C454.087 239.048 454.243 238.111 453.761 237.437C453.28 236.763 452.343 236.607 451.669 237.088L453.413 239.529ZM460.105 231.04C459.433 231.524 459.28 232.461 459.764 233.134C460.247 233.806 461.185 233.959 461.857 233.476L460.105 231.04ZM470.286 227.391C470.957 226.905 471.107 225.967 470.621 225.297C470.135 224.626 469.197 224.476 468.526 224.962L470.286 227.391ZM476.93 218.851C476.261 219.34 476.114 220.278 476.603 220.947C477.091 221.616 478.03 221.763 478.699 221.274L476.93 218.851ZM343.779 309.974C345.146 309.715 346.909 309.066 348.952 308.145L347.72 305.41C345.73 306.307 344.229 306.835 343.221 307.026L343.779 309.974ZM358.311 303.277C361.052 301.725 364.068 299.939 367.308 297.959L365.744 295.399C362.524 297.367 359.538 299.135 356.833 300.667L358.311 303.277ZM376.145 292.439C378.957 290.649 381.883 288.758 384.9 286.786L383.258 284.275C380.25 286.242 377.334 288.126 374.534 289.908L376.145 292.439ZM393.59 281.044C396.416 279.16 399.298 277.223 402.217 275.246L400.536 272.762C397.621 274.735 394.746 276.668 391.926 278.548L393.59 281.044ZM410.819 269.386C413.66 267.44 416.52 265.468 419.387 263.483L417.679 261.017C414.816 262.999 411.959 264.968 409.123 266.911L410.819 269.386ZM427.927 257.543C430.777 255.551 433.62 253.557 436.44 251.57L434.713 249.118C431.895 251.102 429.056 253.094 426.209 255.083L427.927 257.543ZM444.937 245.564C447.807 243.528 450.638 241.512 453.413 239.529L451.669 237.088C448.896 239.069 446.068 241.083 443.201 243.117L444.937 245.564ZM461.857 233.476C464.76 231.387 467.577 229.354 470.286 227.391L468.526 224.962C465.82 226.922 463.006 228.954 460.105 231.04L461.857 233.476ZM478.699 221.274C480.141 220.221 481.539 219.198 482.887 218.21L481.113 215.79C479.767 216.778 478.371 217.799 476.93 218.851L478.699 221.274Z" fill="#8D0000"/>
<path d="M422.441 98.9176C422.671 98.1219 422.213 97.2899 421.418 97.0593C420.622 96.8287 419.79 97.2867 419.559 98.0824L422.441 98.9176ZM323.503 292.588C323.551 293.415 324.261 294.046 325.088 293.997L338.565 293.205C339.392 293.156 340.023 292.446 339.974 291.619C339.925 290.792 339.216 290.161 338.389 290.21L326.409 290.915L325.705 278.935C325.656 278.108 324.946 277.477 324.119 277.526C323.292 277.575 322.661 278.284 322.71 279.111L323.503 292.588ZM329.19 289.522C329.667 288.844 329.504 287.908 328.826 287.432C328.149 286.955 327.213 287.118 326.737 287.795L329.19 289.522ZM332.08 279.545C331.648 280.252 331.87 281.175 332.577 281.607C333.284 282.04 334.207 281.817 334.639 281.111L332.08 279.545ZM339.664 272.626C340.078 271.908 339.831 270.991 339.114 270.577C338.396 270.163 337.479 270.41 337.065 271.127L339.664 272.626ZM341.901 262.576C341.498 263.3 341.759 264.213 342.483 264.615C343.207 265.018 344.12 264.757 344.523 264.033L341.901 262.576ZM349.278 255.362C349.673 254.634 349.402 253.724 348.674 253.329C347.945 252.934 347.035 253.205 346.641 253.934L349.278 255.362ZM351.302 245.236C350.914 245.968 351.192 246.876 351.924 247.264C352.656 247.653 353.564 247.374 353.952 246.643L351.302 245.236ZM358.539 237.924C358.923 237.19 358.638 236.284 357.904 235.901C357.169 235.517 356.263 235.802 355.88 236.536L358.539 237.924ZM360.41 227.79C360.031 228.526 360.321 229.431 361.058 229.809C361.795 230.188 362.699 229.898 363.078 229.161L360.41 227.79ZM367.569 220.368C367.944 219.629 367.649 218.726 366.91 218.352C366.172 217.977 365.269 218.272 364.894 219.011L367.569 220.368ZM369.332 210.207C368.961 210.948 369.261 211.849 370.001 212.22C370.742 212.592 371.643 212.292 372.014 211.551L369.332 210.207ZM376.415 202.716C376.782 201.973 376.478 201.074 375.736 200.706C374.993 200.339 374.094 200.642 373.726 201.385L376.415 202.716ZM378.076 192.545C377.712 193.289 378.02 194.187 378.764 194.551C379.509 194.915 380.407 194.607 380.771 193.863L378.076 192.545ZM385.086 184.987C385.447 184.241 385.134 183.344 384.388 182.984C383.642 182.623 382.745 182.936 382.385 183.682L385.086 184.987ZM386.652 174.795C386.295 175.543 386.612 176.438 387.36 176.795C388.107 177.152 389.003 176.835 389.359 176.087L386.652 174.795ZM393.586 167.164C393.939 166.415 393.617 165.521 392.868 165.169C392.118 164.816 391.224 165.138 390.872 165.887L393.586 167.164ZM395.04 156.961C394.691 157.713 395.018 158.605 395.77 158.953C396.522 159.301 397.413 158.974 397.762 158.222L395.04 156.961ZM401.875 149.266C402.218 148.512 401.885 147.622 401.131 147.279C400.377 146.936 399.487 147.269 399.144 148.023L401.875 149.266ZM403.192 139.035C402.855 139.792 403.195 140.679 403.952 141.016C404.709 141.353 405.596 141.012 405.933 140.256L403.192 139.035ZM409.915 131.194C410.244 130.434 409.894 129.551 409.134 129.221C408.374 128.892 407.491 129.242 407.162 130.002L409.915 131.194ZM410.992 120.995C410.674 121.759 411.035 122.638 411.8 122.956C412.565 123.275 413.443 122.913 413.762 122.148L410.992 120.995ZM417.495 112.929C417.797 112.158 417.416 111.288 416.645 110.986C415.873 110.684 415.003 111.065 414.701 111.836L417.495 112.929ZM418.102 102.648C417.834 103.432 418.251 104.285 419.035 104.553C419.819 104.821 420.672 104.403 420.94 103.62L418.102 102.648ZM326.121 293.497C327.018 292.488 328.048 291.145 329.19 289.522L326.737 287.795C325.625 289.374 324.669 290.615 323.879 291.503L326.121 293.497ZM334.639 281.111C336.198 278.562 337.88 275.72 339.664 272.626L337.065 271.127C335.291 274.204 333.623 277.023 332.08 279.545L334.639 281.111ZM344.523 264.033C346.058 261.273 347.646 258.376 349.278 255.362L346.641 253.934C345.013 256.938 343.43 259.825 341.901 262.576L344.523 264.033ZM353.952 246.643C355.456 243.808 356.988 240.898 358.539 237.924L355.88 236.536C354.331 239.504 352.803 242.409 351.302 245.236L353.952 246.643ZM363.078 229.161C364.565 226.271 366.063 223.336 367.569 220.368L364.894 219.011C363.391 221.974 361.894 224.904 360.41 227.79L363.078 229.161ZM372.014 211.551C373.481 208.624 374.95 205.675 376.415 202.716L373.726 201.385C372.263 204.34 370.797 207.284 369.332 210.207L372.014 211.551ZM380.771 193.863C382.219 190.902 383.66 187.94 385.086 184.987L382.385 183.682C380.96 186.63 379.522 189.588 378.076 192.545L380.771 193.863ZM389.359 176.087C390.789 173.089 392.2 170.111 393.586 167.164L390.872 165.887C389.488 168.829 388.079 171.802 386.652 174.795L389.359 176.087ZM397.762 158.222C399.169 155.185 400.542 152.195 401.875 149.266L399.144 148.023C397.814 150.946 396.444 153.93 395.04 156.961L397.762 158.222ZM405.933 140.256C407.321 137.138 408.651 134.111 409.915 131.194L407.162 130.002C405.903 132.909 404.577 135.926 403.192 139.035L405.933 140.256ZM413.762 122.148C415.127 118.87 416.377 115.786 417.495 112.929L414.701 111.836C413.593 114.669 412.351 117.733 410.992 120.995L413.762 122.148ZM420.94 103.62C421.53 101.898 422.033 100.325 422.441 98.9176L419.559 98.0824C419.168 99.4326 418.68 100.959 418.102 102.648L420.94 103.62Z" fill="#8D0000"/>
<path d="M322.023 738.035C322.075 736.577 322.329 735.509 322.785 734.832C323.605 733.634 325.187 733.035 327.531 733.035C327.752 733.035 327.98 733.042 328.214 733.055C328.449 733.068 328.716 733.087 329.015 733.113V736.316C328.65 736.29 328.384 736.277 328.214 736.277C328.058 736.264 327.908 736.258 327.765 736.258C326.697 736.258 326.059 736.538 325.851 737.098C325.643 737.645 325.538 739.051 325.538 741.316H329.015V744.09H325.499V762.137H322.023V744.09H319.113V741.316H322.023V738.035Z" fill="#8D0000"/>
</svg>
