<svg width="84" height="199" viewBox="0 0 84 199" fill="none" xmlns="http://www.w3.org/2000/svg">
<path d="M55.407 196.63C54.9304 194.018 54.2631 187.607 55.407 182.858C56.5509 178.109 58.5845 176.13 59.4583 175.735C61.5236 172.331 66.4169 163.91 69.4672 157.451C72.5176 150.992 74.8689 146.37 75.6632 144.866C78.1257 142.175 82.8125 134.798 81.8592 126.82C80.906 118.842 81.4621 111.94 81.8592 109.486C82.2564 106.478 82.0498 99.9406 78.0462 97.851C74.0426 95.7614 70.6587 88.7487 69.4672 85.5036C69.2888 84.7036 68.9902 83.5709 68.6064 82.4168M62.0799 111.623C61.2681 111.174 60.5311 110.353 59.9293 109.486M59.9293 109.486C59.2589 108.521 58.7564 107.5 58.5052 106.874C52.7858 97.1387 53.2625 87.1658 53.2625 86.4535C53.2625 85.9487 57.2514 81.6804 59.9293 78.8966M59.9293 109.486C59.4546 110.436 58.5052 112.763 58.5052 114.473M59.9293 78.8966C60.2745 78.5377 60.598 78.2035 60.8883 77.9052C62.0004 77.5094 64.6059 76.9554 66.1311 77.9052C67.0853 78.4994 67.9649 80.4879 68.6064 82.4168M59.9293 78.8966C59.2163 76.904 57.9333 72.3489 58.5052 70.0694C59.0772 67.7899 56.5193 65.9536 55.1689 65.3204C54.3889 64.9625 53.5026 64.5583 52.5475 64.1258M21.5675 70.7817C22.2824 68.9613 24.3318 64.5605 26.8102 61.5212C29.9082 57.722 33.7212 57.0096 35.3893 57.0096C36.5514 57.0096 46.1104 61.211 52.5475 64.1258M68.6064 82.4168C68.4168 71.7315 67.9422 50.171 67.5609 49.4112C67.1797 48.6514 67.4021 38.1719 67.5609 33.0271C67.4021 28.5156 65.3685 19.3975 58.5052 19.0176C56.5988 18.9384 52.7382 19.3975 52.5475 21.867M52.5475 64.1258C52.8653 46.9527 52.8878 15.4555 51.1177 9.28222C50.0283 5.4829 46.5898 1.92125 43.0152 2.15871C40.1555 2.34867 38.0107 4.77048 37.2958 5.95765C37.0575 7.30316 36.2472 11.1815 36.8192 15.9306C37.0575 19.6506 36.8192 27.7976 36.8192 30.8899C36.8192 34.2142 36.5014 37.0636 36.3426 41.8127C36.1837 46.5617 33.7212 55.1537 33.7212 56.0597" stroke="#8D0000" stroke-width="3" stroke-linecap="round" stroke-linejoin="round"/>
<path d="M22.652 87.6594C22.73 83.3936 22.465 73.7721 20.7816 69.4116C20.3141 65.4618 19.2387 57.3254 18.6776 56.3774C17.9762 55.1925 20.0804 39.5515 14.4691 36.4707C9.98016 34.0061 7.61097 35.4438 6.9875 36.4707C6.67577 39.2355 6.00553 46.7084 5.81849 54.4815C5.63145 62.2546 5.74056 70.9914 5.81849 74.3882C6.20816 79.0489 6.9875 89.3656 6.9875 93.3469C6.9875 97.3283 6.9875 101.799 6.9875 103.537C5.03916 111.437 1.28275 128.895 1.84387 135.53C2.54527 143.825 2.07767 151.882 3.48048 156.385C4.60273 159.987 3.94808 172.263 3.48048 177.95" stroke="#8D0000" stroke-width="3" stroke-linecap="round" stroke-linejoin="round"/>
<path d="M3.43945 177.952C3.25632 182.164 2.78019 190.918 2.34068 192.236" stroke="#8D0000" stroke-width="3" stroke-linecap="round" stroke-linejoin="round"/>
<path d="M53.4316 86.7494C51.2469 86.8271 46.4404 85.4445 44.6926 79.2926C44.555 78.9845 44.4019 78.5742 44.2796 78.1274M44.6926 75.0981C43.8574 75.6325 43.97 76.9969 44.2796 78.1274M32.5549 71.3696C33.1697 74.2436 36.3753 79.6188 44.2796 78.1274" stroke="#8D0000" stroke-width="3" stroke-linecap="round" stroke-linejoin="round"/>
<path d="M38.0488 81.2593C35.7977 82.1717 30.6683 83.8701 28.1599 83.3648" stroke="#8D0000" stroke-width="3" stroke-linecap="round" stroke-linejoin="round"/>
</svg>
