<svg width="140" height="202" viewBox="0 0 140 202" fill="none" xmlns="http://www.w3.org/2000/svg">
<path d="M41.5 196.5C41.4998 192 42.5 185.5 44.5001 176.213V118.324C42.4121 112.882 39.489 99.5726 44.5001 89.875C46.0259 84.2676 49.0776 72.2612 49.0776 69.0946C49.0776 65.1364 50.5231 58.457 50.764 54.4989C50.9568 51.3323 54.5384 30.7498 56.3052 20.8544L59.1962 3.28998C62.1676 1.80567 68.5439 0.370829 70.2785 6.506C72.0132 12.6412 71.6437 17.3086 71.2422 18.8754M82.4998 196.5C82.4998 188 86.1793 183.14 88.5885 181.16C90.9976 179.181 110.03 148.753 107.621 143.31C105.694 138.956 106.818 131.601 107.621 128.467C109.308 119.561 113.259 100.711 115.571 96.5545C117.884 92.3985 119.105 84.2677 119.426 80.7218C116.053 71.5687 110.03 73.3003 105.935 73.5477C101.839 73.795 97.2616 85.917 97.0206 89.875C96.8279 93.0415 91.3189 107.852 88.5885 114.861C82.4209 118.226 79.4335 111.315 78.7107 107.44C78.9035 98.7316 75.7394 85.9994 74.1333 80.7218C74.326 72.6076 73.5711 63.1575 73.1696 59.4467C73.9405 54.4989 72.8483 36.6047 72.2059 28.276C72.9768 14.8183 64.3358 12.4434 59.919 12.9381C58.2325 12.5258 55.1488 16.9458 56.3052 37.9241C54.8597 46.8299 52.4023 65.5322 54.1369 69.0946C53.9763 76.1039 52.7396 90.9141 49.0776 94.0807C47.7927 96.0598 45.6084 101.502 47.1502 107.44" stroke="#8D0000" stroke-width="3" stroke-linecap="round"/>
</svg>
