<svg width="92" height="198" viewBox="0 0 92 198" fill="none" xmlns="http://www.w3.org/2000/svg">
<path d="M58.2958 195.532C57.7871 191.458 57.075 182.597 58.2958 179.745C59.8218 176.18 74.5733 155.809 75.5907 150.716C76.608 145.624 80.9318 136.966 82.2035 134.929C83.4751 132.892 87.0359 128.818 87.0359 119.396C87.0359 111.859 88.901 103.524 89.8336 100.298C90.0879 97.6671 90.2405 91.8444 88.8162 89.6036C87.3919 87.3628 84.8316 81.7099 83.7295 79.1635C83.7295 77.1264 83.7295 71.83 83.7295 66.941C83.7295 62.052 79.8297 61.8483 77.8797 62.3575C77.7173 62.4737 77.5474 62.5959 77.3711 62.7233M65.9259 103.608C66.0107 102.08 66.3837 98.6684 67.1976 97.2424C68.0115 95.8164 67.5367 92.4043 67.1976 90.8765C65.9259 84.7652 67.1976 73.0519 67.1976 71.5241C67.1976 70.3576 73.6839 65.3877 77.3711 62.7233M56.2611 69.2324C53.3786 69.8266 46.9524 70.7602 44.3072 69.7417M38.7118 66.941C38.2879 60.6599 37.898 47.5883 39.7292 45.5512C42.0182 43.0049 43.7986 41.477 46.0876 41.7317C47.9188 41.9354 54.6503 41.8165 57.7871 41.7317C60.4153 41.7318 66.282 42.6486 68.7236 46.3154C71.1652 49.9822 74.6581 55.9916 76.0994 58.538C76.6928 59.6306 77.778 61.9973 77.3711 62.7233" stroke="#8D0000" stroke-width="3" stroke-linecap="round" stroke-linejoin="round"/>
<path d="M65.8281 71.3694C64.0067 70.4396 59.6037 67.2616 56.5628 61.9875L57.9882 58.1841M55.8501 61.9875C54.1871 62.072 50.3384 61.6833 48.2477 59.4519" stroke="#8D0000" stroke-width="3" stroke-linecap="round" stroke-linejoin="round"/>
<path d="M68.0234 44.2243C67.94 40.9216 67.6732 33.9606 67.2729 32.5379C66.8726 31.1152 67.1061 23.4767 67.2729 19.8353C67.1061 15.8551 65.1213 7.64079 58.5165 6.62458C51.9117 5.60837 51.2612 13.1453 51.7616 17.0407V27.2028V41.4297M40.7535 42.7C41.1538 40.8708 40.7535 36.6028 40.7535 33.046C41.2539 32.5379 40.4033 31.2168 44.0059 19.8353C47.6085 8.45376 42.0045 3.40658 38.7521 2.30568C37.0008 1.88226 33.2481 2.05163 32.2473 6.11647C31.2466 10.1813 28.995 17.4642 27.9942 20.5975C27.0769 23.3921 24.7419 29.3878 24.7419 31.0137C24.7419 33.046 21.4895 50.8298 21.4895 52.6081M22.4902 75.2188C21.9899 69.0368 20.7389 55.6567 19.7382 51.5919C18.7375 47.5271 18.3205 43.9703 18.2371 42.7C18.0703 37.1109 17.5366 25.7294 16.736 24.9164C15.7353 23.9002 14.2342 20.5975 10.2313 20.5975C7.02894 20.5975 4.89405 23.4768 4.2269 24.9164V49.8135C4.47708 59.2982 5.12756 78.9279 5.72799 81.5701C6.32843 84.2122 4.97744 92.8331 4.2269 96.8132C2.55901 106.128 1.5709 127.839 2.17134 135.766C2.77178 143.692 4.2562 149.739 4.92335 151.771C5.42371 160.663 3.92668 178.567 2.7258 183.445" stroke="#8D0000" stroke-width="3" stroke-linecap="round" stroke-linejoin="round"/>
</svg>
